<?xml version="1.0" encoding="UTF-8"?>
<svg id="Layer_2" data-name="Layer 2" xmlns="http://www.w3.org/2000/svg" viewBox="0 0 426.9 117.17">
  <defs>
    <style>
      .cls-1, .cls-2, .cls-3 {
        stroke-width: 0px;
      }

      .cls-2 {
        fill: #fff;
      }

      .cls-3 {
        fill: #050606;
      }
    </style>
  </defs>
  <g id="Layer_1-2" data-name="Layer 1">
    <g>
      <path class="cls-3" d="m377.41,113.89c-.8.04-1.59.09-2.39.13-.21.01-.46-.06-.47.29,0,.05-.19.13-.29.13-1.08.06-2.15.13-3.23.15-.52.01-.52-.03-.7-.54h-1.94s-.02.08-.03.11c.06.04.13.09.22.15-.18.05-.36.1-.53.13-.36.06-.8-.07-.95.44,0,.03-.1.06-.16.06-.93,0-1.86-.02-2.79-.03,0-.04-.01-.09-.02-.13.17-.05.35-.1.53-.16-.57-.05-1.13-.09-1.68-.15-.26-.03-.58.02-.62-.38,0-.04-.09-.1-.14-.09-.31.02-.42-.17-.41-.45h-1.07c-.05.11-.11.25-.17.39-.91.25-1.2.18-1.47-.43-.46.03-.95.06-1.44.09-.03.45-.76.28-.68.79-.43.15-.82.28-1.24.1-.17-.07-.42,0-.39-.31,0-.03-.15-.09-.23-.12-.22-.07-.44-.12-.79-.22.21-.09.28-.13.49-.22h-1.51c.1.43-.47.27-.56.65-.05.22-.37.38-.66.66h-.95c-.05-.29-.09-.56-.14-.88-.4.03-.79.05-1.22.08.14.07.22.11.36.18-.33.2-.6.09-.9.13,0-.41-.23-.54-.58-.47-.89.18-1.78.14-2.68.12-1.04-.02-2.08-.05-3.12-.08-.18,0-.36-.03-.57-.06-.03-.34-.23-.45-.56-.42-.53.05-1.07.06-1.7.09.18.13.26.19.35.25,0,.03,0,.06-.01.1-.45,0-.9,0-1.35,0-.06,0-.16-.01-.17-.04-.13-.46-.5-.27-.78-.28-.9-.05-1.79-.09-2.69-.11-.54-.01-1.07.02-1.61.03-1.08.01-2.16.04-3.24.03-.72,0-1.43-.05-2.13-.08-.21-.53-.57-.59-1.76-.36-.02.1-.05.21-.09.39-.14-.04-.4-.08-.4-.12,0-.34-.31-.31-.49-.45v-.57c1.15-.23,2.3-.16,3.45-.21-.33-.25-.71-.1-1.07-.1-.39,0-.78-.02-1.17-.09.04-.01.07-.03.11-.03,2.05,0,4.1-.25,6.16-.14,1.15.06,2.32-.07,3.47-.04,4.05.1,8.11,0,12.16.04,1.7.02,3.39.03,5.09.04.32,0,.64-.03,1-.05.04-.13.09-.27.15-.45.08.08.14.12.23.21v-1.26c-.34-.04-.68-.09-1.02-.1-1.02-.04-2.04-.05-3.06-.09-.25,0-.5-.08-.74-.18.48-.02.96-.04,1.43-.07,0-.01,0-.03,0-.04-1.34-.03-2.68-.08-4.02-.1-1.34-.02-2.68-.02-4.02-.03-1.36,0-2.72.01-4.08,0-1.33-.02-2.66.04-3.98-.1,0-.04,0-.08,0-.12.2-.03.4-.07.6-.1,0-.02,0-.03,0-.05-.84-.01-1.69-.03-2.53-.04-3.92-.02-7.83-.05-11.75-.05-2.15,0-4.31.07-6.46.19h2.75s0,.07,0,.11c-2.13.1-4.25.19-6.38.29,0,.02,0,.04,0,.06.18.05.36.1.53.14,0,.02,0,.04,0,.06-1.11.07-2.22.14-3.33.2,0,.04,0,.08-.01.12.12.07.25.14.44.25-.88.33-1.75.17-2.63.36-.02.22-.03.47-.05.7.84.41,1.7.1,2.51.32h-1.9c0,.05,0,.11-.01.16.18.01.36.04.54.04,2.8.01,5.59.02,8.39.04.29,0,.58.06.89.09v.54c-.26.09-.51.19-.77.28-.01.09-.02.18-.04.32-.65.05-1.28.1-1.91.15,0,.01,0,.03,0,.04.41.03.81.05,1.22.08,0,.03,0,.07,0,.1-.5.03-1,.05-1.5.09-.51.04-1.03.11-1.55.19.31.02.62.04.92.06v.09c-.08.03-.17.08-.26.08-1.02.03-2.04.03-3.06.07-.81.03-1.63.08-2.44.2h1.37s0,.1,0,.14c-.81.03-1.61.06-2.42.1,0-.04,0-.08-.01-.12.14-.04.28-.08.42-.12v-.06h-.82c-.05.13-.05.34-.33.33-.64-.01-1.28.02-1.92.02-.66,0-1.32-.03-1.98-.05-.19,0-.39-.04-.59-.16.17-.04.34-.08.61-.14-1.36-.08-2.62-.15-3.89-.23,0-.04,0-.07,0-.11.09-.03.17-.06.26-.09,0-.02,0-.04,0-.07-.79-.08-1.57-.16-2.36-.24,0-.02,0-.05,0-.07.22-.04.44-.07.66-.11,0-.02,0-.04,0-.06-.18-.01-.36-.03-.53-.03-.21,0-.42-.03-.42-.3,0-.25.15-.34.39-.35.24-.02.47-.07.84-.12-.38-.12-.64-.2-.95-.3.91-.21,1.78-.21,2.64-.23,1.6-.03,3.2-.04,4.8-.07.4,0,.79-.04,1.18-.17h-2.34s0-.08,0-.12c.51,0,1.02.02,1.53,0,.52-.02,1.03-.07,1.58-.11v-.86c-2.79-.15-5.56-.09-8.35-.12-.07-.17-.13-.33-.2-.52h-.76c.17.14.54,0,.5.42-.52.12-1.04.13-1.6.08-.05-.2-.1-.38-.14-.56q-.43-.05-.7.54c-.27.01-.56.03-.87.04-.05-.22-.08-.38-.11-.54-.66-.19-6.81-.17-8.31.02-.02.14-.04.29-.07.47-.66.08-1.32.16-2.01.24.12.06.21.11.31.15,0,.04-.01.08-.02.12-1.58.1-3.16.07-4.74.05-.03-.15-.05-.24-.06-.33-.04-.01-.08-.04-.12-.04-1.54,0-3.08.02-4.61.02-.28,0-.55-.09-.83-.09-.62.01-1.23.06-1.85.09-.19.01-.39.03-.48.04.09.01.28.05.57.09-.42.32-.8.14-1.16.2-.04-.12-.07-.22-.11-.32-.78-.14-6.83-.13-8.29.02.16.07.26.12.37.16-1.43.2-2.84.1-4.26.06.57-.39,1.24.15,1.85-.22-3.65-.06-7.28-.12-10.94-.18-.02-.54-.36-.56-.75-.57-2.44-.04-4.88-.1-7.31-.14-1.38-.02-2.76-.02-4.14-.03-1.76-.02-3.51-.05-5.27-.04-3.12.01-6.23.05-9.35.08-.23,0-.46,0-.68,0,0-.06,0-.11,0-.17.2-.01.41-.04.61-.04,2.78,0,5.56,0,8.34,0,3.96,0,7.91,0,11.87-.04-21.56-.18-43.11-.1-64.67-.05.29.08.58.16.86.23-8.29.09-16.58.29-24.87-.14h3.88s0-.1,0-.15c-.68,0-1.36,0-2.03,0-.68,0-1.36,0-2.04-.02-.7-.02-1.4-.06-2.09-.08-.68-.02-1.36-.02-2.04-.03-.68-.01-1.36-.03-2.04-.04,0-.06,0-.11,0-.17.46-.02.92-.04,1.38-.06-1.18.03-2.36-.24-3.54-.08,0,.04,0,.09,0,.13h1.14c-.8-.07-1.59.45-2.43.14.04-.06.07-.12.12-.21-.13-.03-.28-.05-.39-.07q-.6.36-1,.34c.06-.39-.19-.44-.51-.45-.6,0-.71.05-.88.47-.67.06-1.34.11-2.13.18.2.09.3.13.53.22-.81.16-1.51.11-2.2.08-.74-.04-1.48-.03-2.22-.04-.71,0-1.43,0-2.14-.05.45-.23.93-.1,1.4-.12.5-.01,1,0,1.5,0,.5,0,.99,0,1.5-.1-.28,0-.56,0-.84,0-1.56-.03-3.11.06-4.67-.1-.73-.07-1.47.06-2.21.06-2.24-.01-4.48-.04-6.71-.07-1.46-.02-2.92-.06-4.37-.09-.21,0-.41-.03-.62-.05,0-.04,0-.08,0-.12h1.65s0-.05,0-.08c-1.51-.06-3.01-.12-4.59-.18.06-.13.09-.2.14-.32-.54,0-1.05,0-1.57,0-3.78-.03-7.55-.09-11.33-.1-2.56,0-5.12.06-7.67.08-1.14,0-2.28,0-3.41-.02-1.62-.02-3.23-.03-4.85-.07-.65-.02-1.29-.12-1.94-.23.4-.02.79-.04,1.19-.06,0-.03,0-.05,0-.08h-4.75v.06c.32.03.64.07.96.1-1.58.27-3.17.15-4.75.18-1.57.04-3.13.12-4.82.19.24.05.36.08.57.13-.3.21-.55.12-.82.16-.04-.24-.06-.47-.41-.44-.84.07-1.69.1-2.54.23h1.79s0,.08,0,.12c-.12.02-.25.06-.37.06-1.92.02-3.84.03-5.75.05-1.87.02-3.74.06-5.62.07-.42,0-.83-.05-1.25-.08-.22-.01-.44-.01-.66,0-.72.03-1.43.08-2.15.09-1.03.02-2.07,0-3.11.09.39.02.77.03,1.16.05v.13c-.5.17-1.03.08-1.55.1-.54.02-1.08.03-1.62.03-.52,0-1.04.02-1.56.01-.53,0-1.07-.03-1.63-.04v-1c-1.08,0-2.14,0-3.19,0-1.06,0-2.12,0-3.18.01-1.05,0-2.1-.09-3.24.24.23.05.37.07.51.1-1.39.28-2.8.27-4.19.4h1.97s0,.06,0,.09c-.16.02-.32.06-.48.07-1.44.04-2.88.07-4.31.09-.2,0-.45.06-.51-.27-.01-.06-.27-.11-.41-.11-.76-.03-1.52-.04-2.27-.08-.2,0-.45.06-.51-.27-.01-.07-.31-.11-.47-.12-.3,0-.52-.08-.51-.45-1.06-.05-2.09-.1-3.18-.15-.1-.86-.08-1.68.02-2.54.17-.02.32-.04.48-.07.02-.05.06-.1.07-.15.03-.26.06-.51.08-.77.01-.17.04-.29.25-.34.1-.03.13-.32.24-.34.3-.08.46-.33.68-.48.19-.13.24-.23.23-.4-.01-.22-.05-.43-.08-.66-.07.09-.13.15-.22.27-.12-.27-.16-.6-.55-.45-.08-.35-.14-.64-.22-1-.09.11-.14.17-.2.25.01,0-.03,0-.03-.02-.04-.28-.09-.55-.09-.83,0-.25-.14-.59.31-.64.02,0,.06-.06.06-.09,0-.34.23-.42.63-.42-.19-.13-.26-.18-.33-.23.23-.06.46-.11.74-.18.03-.65.06-1.32.09-1.99h.04c.05.22.09.45.14.67.04,0,.08,0,.12,0,.05-1.1.1-2.19.15-3.37h-1.43c-.02-.32-.06-.57-.06-.82-.01-1.87-.02-3.74-.02-5.62,0-.28.05-.55.08-.85.65-.31,1.37-.13,2.08-.23v-1.05c-.36-.04-.69-.07-.93-.09-.24-.22-.43-.39-.69-.63v-1.41c.3-.02.45-.12.47-.45.02-.46-.08-.96.27-1.46.08.31.15.56.22.86.81.03,1.63.07,2.45.1,0,.04,0,.08,0,.12-.2.01-.41.03-.61.04,0,.03,0,.06,0,.08.28.02.56.03.74.05.2-.19.33-.42.48-.44.3-.04.08-.52.46-.44.21.04.44,0,.67,0,.08-.18.14-.33.21-.5.31.05.6.1.95.16.07.21.15.46.24.76.36,0,.73,0,1.11,0,.44.01.88.07,1.32.05.25-.01.63.16.7-.31,0-.03.14-.06.21-.06.32-.02.64-.04.96-.03.41,0,.82.03,1.24.15-.22.02-.45.04-.67.07,0,.03,0,.05,0,.08,1.48.08,2.96.15,4.45.23,0,.03,0,.05,0,.08-.13.02-.27.05-.5.09.36.22.67.16.97.17.44.02.87-.03,1.31-.02,2.34.06,4.67.14,7.01.18,1.44.02,2.88,0,4.31-.03.24,0,.47-.08.71-.07.13,0,.27.1.4.16.01-.17.03-.4.06-.68.28.18.18.42.2.61.05.43.09.48.52.45.61-.04,1.23-.11,1.84-.15.28-.02.56.02.84.02.5,0,1,0,1.54,0,.02-.39.29-.44.61-.45.48,0,.96-.03,1.44-.06.19-.01.38-.05.57-.15-.29-.03-.58-.06-.87-.08,0-.02,0-.04,0-.06h2.44s0,.04,0,.06c-.12.03-.24.05-.37.08,0,.03,0,.07-.01.1.19.02.39.05.62.08.04.14.09.3.15.48.18,0,.36.02.54.02.08,0,.2.02.23-.02.44-.62,1.14-.27,1.75-.53.02-.05.05-.18.11-.35,1.52-.15,3.05-.09,4.59.13-.08.03-.17.07-.26.11.03.03.05.06.07.07.6.14,1.19.27,1.81.13.24-.05.52,0,.77.02.17.02.34.02.41.26.04.12.26.18.46.29.02.13.04.32.08.55h1.52c0-.19-.02-.34-.02-.51,1.55-.39,3.12-.03,4.68-.31-.11-.03-.23-.06-.34-.08-.14-.02-.27-.02-.42-.08.16-.01.32-.05.48-.04.38.03.57-.12.54-.56.43-.02.81-.04,1.22-.07.05.16.07.25.1.34.02.07.05.15.07.22.7.26,1.38-.23,2.1-.03.04.13.09.27.14.42h1.04c.03-.15.05-.28.08-.48,1.63.06,3.25.12,4.87.17,0,.03,0,.06,0,.1h-1.97s0,.05,0,.07c.08.01.15.04.23.04.93.08,1.87.18,2.8.22.49.02,1-.04,1.49-.09.48-.05.47-.07.77-.43.04.36.25.42.55.4.37-.03.75,0,1.1,0,.24-.55.27-.56,1.17-.43.03.11.07.24.11.37.36.06.73.12,1.13.19v.55c.29.02.55.03.84.05.01-.22.02-.41.03-.58.6-.18,5.15-.16,6.02.03.02.13.03.28.05.46.53.21,1.08.06,1.57.04.28-.13-.15-.62.42-.53.03.17.06.35.1.54.24.13.67,0,.59.51.28-.02.52-.04.75-.06,0-.03.01-.07.02-.1-.12-.04-.24-.08-.36-.11.52-.23,1.07-.13,1.61-.13.8,0,1.6,0,2.4-.04.3-.01.39.13.38.4.26.02.49.04.75.06.11-.15.1-.43.42-.39.21.03.39.02.43.28,0,.04.17.08.26.08.34,0,.68,0,1.01,0,.1-.16.15-.35.28-.43.14-.08.34-.05.55-.07v-.57c.64-.18,1.28-.11,1.9-.18.04-.12.07-.23.1-.33.91-.07,1.79-.13,2.68-.19v-.08c-.52-.02-1.03-.05-1.54-.07,4.68-.23,9.36-.27,14.04,0-.41.03-.83.06-1.24.08,0,.02,0,.04,0,.06,1.21.08,2.42.16,3.63.25,0,.02,0,.04,0,.06-.1.04-.19.07-.42.15.38.07.64.12.96.18.02.18.05.37.08.59-.32.1-.61.19-.96.3.1.08.17.14.28.23-2.39.25-4.78.13-7.16.25.17.23.43.1.63.21-.2.1-.42.2-.7.33.38.2.7.26,1.05.19.34-.06.7-.08,1.08-.13.04.34.07.61.11.9.16.02.29.04.43.04,1.5,0,3,.01,4.49.02.64,0,1.27.02,1.91.01.37,0,.75,0,1.12-.04.29-.02.36.16.41.42,1.72-.03,3.41-.07,5.1-.1,0-.03,0-.07,0-.1-.9-.03-1.8-.07-2.69-.1,2.51-.11,5.03.02,7.54-.36-.3-.06-.58-.11-.92-.18.21-.31.45-.26.65-.26.8,0,1.6,0,2.4,0,2.28,0,4.55-.02,6.83-.03.34,0,.67.03,1.05.04-.01.19-.02.34-.04.55.56-.04,1.09-.08,1.64-.12-.43-.08-.85-.15-1.27-.23.68-.24,1.36-.29,2.05-.28.74.01,1.48.06,2.21.06,5.98-.01,11.95-.04,17.93-.05,1.26,0,2.52,0,3.78.02.31,0,.63.06.98.21-.2.09-.39.18-.7.32.56.03,1.02.07,1.47.08,3.64.03,7.28.06,10.91.07,3.82.01,7.63,0,11.49,0,.07.32.26.44.58.43.78-.02,1.56,0,2.34,0,1.92,0,3.84,0,5.75,0,1.86,0,3.72-.03,5.57-.04.9,0,1.79,0,2.69,0v-.14c-2.29-.03-4.59-.06-6.89-.09,0-.01,0-.02,0-.03,2.56-.02,5.11-.04,7.67-.07,2.56-.02,5.11-.06,7.67-.08,2.58-.02,5.16-.07,7.73-.04,2.55.03,5.11-.04,7.66-.01,2.57.03,5.13.01,7.7-.02,0-.05.01-.1.02-.15-.14-.06-.27-.13-.49-.23.38-.2.69-.25,1.02-.25,2.36.02,4.71.01,7.07.04,1.74.02,3.48.07,5.22.11.15,0,.3.05.44.13-1.58.06-3.16.12-4.74.19v.07c.82.03,1.63.08,2.45.09,3.84.05,7.68.1,11.51.15.94.01,1.88.06,2.81.05.77,0,1.54-.18,2.32-.02.1.02.23-.06.34-.09.31-.07.59.01.78.24.31.38.79.36,1.03-.08.04.07.08.13.12.19.2-.39.2-.37.65-.39.63-.04,1.27-.11,1.85-.16-.41-.05-.87-.1-1.34-.16,0-.04-.01-.07-.02-.11.08-.05.16-.13.25-.13.62-.04,1.24-.08,1.86-.09,1.36-.02,2.72-.02,4.08-.03.42,0,.83.01,1.29.22-.16.12-.27.21-.44.34.32.05.59.13.86.12,1.16-.02,2.32-.08,3.47-.1.58-.01,1.16.01,1.74.03,1.92.04,3.83.09,5.75.13,1.59.03,3.19.05,4.79.19h-1.58s0,.08,0,.12c.32.03.63.07.95.08,1.2.03,2.4.05,3.6.06,1.92.02,3.84.03,5.76.03,3.66,0,7.32-.02,10.97-.04,3-.01,5.99-.04,8.99-.02,2.2,0,4.4.09,6.59.09,2.26,0,4.52-.06,6.77-.09.6,0,1.2.01,1.8.01.19,0,.41.05.47-.25.01-.06.22-.12.34-.12,1.52-.04,3.03-.08,4.55-.1.92-.01,1.83,0,2.75,0,1.28,0,2.55-.02,3.83-.03.1,0,.2-.01.3,0,.84.12,1.66,0,2.5-.06.57-.04,1.15.05,1.73.06.29,0,.59-.02.88-.03,0-.6,0-.62.55-.62,1.18,0,2.35,0,3.53.02.1,0,.19.03.31.06v.42c.25.25.42.43.64.67,3.38,0,6.85-.01,10.32,0,3.45.01,6.91.06,10.42.09-.03,1.21.1,2.39-.31,3.55-.05-.16-.11-.32-.21-.62-.06.24-.09.33-.11.43-.12.66-.19,1.32-.2,1.99,0,.15.04.32-.21.35-.06,0-.12.22-.13.34-.05.41-.09.83-.12,1.13-.19.18-.42.29-.41.39.02.33-.26.23-.39.33-.07,1.22-.14,2.43-.19,3.64-.03.71-.02.71.75.73-.2.05-.36.09-.53.13,0,.03,0,.07,0,.1.13.02.25.03.38.05.14.01.27.02.46.04.36,2.16.05,4.32.19,6.47.04-.22.08-.44.12-.66.02,0,.03,0,.05,0v.99c-.24.1-.51.2-.79.31v.69c.4.05.47.3.5.68.04.54.01,1.06-.07,1.6-.23.05-.44.09-.66.13.05.07.1.12.19.24-.74.19-1.46.05-2.19.15-.04.22-.07.43-.1.63-.02,0-.04,0-.06,0-.04-.15-.07-.31-.12-.51-.08.5-.21.95-.02,1.52.08-.21.12-.31.16-.44.08.28.15.55.24.89.33,0,.67-.01,1,0,.33.01.66.06,1.09.09-.1.19-.17.31-.24.45.17.08.4.18.66.3v.79c-.11.02-.21.04-.4.07-.05.83-.1,1.69-.15,2.54-.05.01-.09.02-.14.03-.06-.1-.13-.19-.17-.29-.07-.16-.11-.33-.17-.49-.3.12-.45-.32-.79-.2-.23.08-.51.01-.81.01-.03-.17-.06-.34-.1-.53-.23-.03-.46-.06-.73-.09-.04.22-.07.41-.11.65h-2.15c-.05-.2-.09-.36-.14-.6-.68-.04-1.37-.08-2.06-.12-.21-.01-.45.06-.52-.26-.01-.06-.24-.09-.36-.09-1.18-.04-2.36-.07-3.53-.12-.58-.03-1.15-.11-1.85-.18.5-.03.87-.06,1.24-.08,0-.02,0-.04,0-.07-.85-.04-1.7-.08-2.56-.12-1.38-.06-2.75-.11-4.13-.15-.34-.01-.67.02-1.01.03.22-.04.43-.1.64-.11.93-.04,1.86-.05,2.8-.08v-.05h-3.96c.24.11.39.17.54.24ZM46.01,83.41c.53.24,1.08.12,1.63.14.58.02,1.15.01,1.73,0,.56,0,1.12.06,1.68-.14h-5.03Zm.21,25.05s.02-.04.02-.06h-7.96s0,.04,0,.06h7.94Zm235.36-21.71c.73.12,1.45.27,2.18.12,0-.04,0-.08,0-.12h-2.18Zm-178.28-.99c.39.01.62.04.84.02.21-.02.3-.28.12-.38-.17-.1-.41-.13-.61-.1-.11.02-.18.22-.36.46Zm293.59,12.01c-.23.59-.19,1.19,0,1.78v-1.78Zm-241.87-11.49s0,.04,0,.05h2.19s0-.04,0-.05h-2.18Zm8.46.08c-.62-.02-1.25-.29-1.87,0h1.87Zm-86.85,22.05c.45.31.89.07,1.33,0h-1.33Zm-24.83-24.98s0,.04,0,.06h1.34s0-.04,0-.06h-1.34Zm31.33.09c-.27-.08-.54-.19-.79-.06,0,.04,0,.09.01.13.26-.02.52-.04.78-.06Zm53.71,3.25c.28,0,.56.25.95,0h-.95Zm-81.17-2.6s-.02-.02-.02-.04h-.79s0,.02,0,.04h.81Zm117.59,25.69s-.04-.01-.06-.01c-.17,0-.34,0-.5,0h0c.18.01.36.01.56.01Zm2.67-.01s0,.01,0,.02h.63s0-.01,0-.02h-.63Zm88.19-23.53v-.02h-.62v.02h.62Zm-89.9,23.53s0,.03,0,.05h.62s0-.03,0-.05h-.62Zm-82.08-25.66s0-.03,0-.05h-.57s0,.03,0,.05h.57Zm242.75,29.03s0,0,0,0h-.56s0,0,0,0h.55Zm22.8-26.38s0-.03,0-.05h-.48s0,.03,0,.05h.48Zm-237.43,22.54s-.04.03-.06.05c.03,0,.06-.02.06-.02h.33v-.03h-.33Zm277.08,5.73s-.06-.01-.1-.02c-.01.09-.02.17-.03.26.02,0,.04,0,.06,0,.02-.08.05-.17.07-.25Zm-293.64-30.11s0,.03,0,.04h.38s0-.03,0-.04h-.38Z"/>
      <g>
        <path class="cls-2" d="m39.73,98.46c0,1.34-1.06,2.45-2.42,2.45s-2.41-1.11-2.41-2.45,1.08-2.45,2.41-2.45,2.42,1.09,2.42,2.45Z"/>
        <path class="cls-2" d="m53.09,92.68h1.16v11.72h-1.16v-11.72Z"/>
        <path class="cls-2" d="m65.41,93.82v-1.14h6.34v1.14h-2.58v10.58h-1.16v-10.58h-2.61Z"/>
        <path class="cls-2" d="m85.2,92.68l5.39,11.72h-1.24l-1.82-3.85h-4.99l-1.8,3.85h-1.29l5.47-11.72h.27Zm-.15,2.48l-2,4.24h3.96l-1.96-4.24Z"/>
        <path class="cls-2" d="m102.05,92.68h1.16v10.57h4.44v1.14h-5.6v-11.72Z"/>
        <path class="cls-2" d="m118.99,92.68h1.16v11.72h-1.16v-11.72Z"/>
        <path class="cls-2" d="m137.18,92.68l5.39,11.72h-1.24l-1.82-3.85h-4.99l-1.8,3.85h-1.29l5.47-11.72h.27Zm-.15,2.48l-2,4.24h3.96l-1.96-4.24Z"/>
        <path class="cls-2" d="m154.06,104.4v-11.72h.24l7.66,8.97v-8.97h1.16v11.72h-.26l-7.65-8.86v8.86h-1.16Z"/>
        <path class="cls-2" d="m181.49,98.46c0,1.34-1.06,2.45-2.42,2.45s-2.41-1.11-2.41-2.45,1.08-2.45,2.41-2.45,2.42,1.09,2.42,2.45Z"/>
        <path class="cls-2" d="m195.08,92.68h2.66c1.21,0,2.13.08,2.69.29,1.19.46,1.9,1.5,1.9,2.82,0,.59-.08.93-.34,1.45-.6,1.22-1.75,1.7-3.67,1.7l4.17,5.45h-1.43l-4.15-5.45h-.66v5.45h-1.16v-11.72Zm1.16,1.14v3.98c.64,0,1.3.02,1.92.02,1,0,1.77-.1,2.27-.51.42-.34.69-.91.69-1.52,0-1.14-.77-1.97-2.51-1.97h-2.37Z"/>
        <path class="cls-2" d="m214.46,92.68h6.6v1.14h-5.44v3.67h5.44v1.14h-5.44v4.62h5.44v1.14h-6.6v-11.72Z"/>
        <path class="cls-2" d="m237.18,95.03c-.63-.83-1.18-1.44-2.13-1.44-1,0-1.56.72-1.56,1.49,0,.64.37,1.31,1.03,1.81,2.17,1.63,3.77,2.76,3.77,4.65,0,1.65-1.37,3.15-3.25,3.15-1.59,0-2.64-.9-3.49-2.48l.98-.6c.69,1.29,1.53,1.94,2.41,1.94,1.21,0,2.14-.9,2.14-1.99,0-1.29-1.19-2.02-3.82-4.18-.55-.44-.98-1.37-.98-2.25,0-1.62,1.24-2.74,2.8-2.74,1.42,0,2.27.87,3.03,1.91l-.93.73Z"/>
        <path class="cls-2" d="m249.27,93.82v-1.14h6.34v1.14h-2.58v10.58h-1.16v-10.58h-2.61Z"/>
        <path class="cls-2" d="m269.06,92.68l5.39,11.72h-1.24l-1.82-3.85h-4.99l-1.8,3.85h-1.29l5.47-11.72h.27Zm-.15,2.48l-2,4.24h3.96l-1.96-4.24Z"/>
        <path class="cls-2" d="m292.45,92.68h1.16v7.62c0,2.76-1.46,4.39-3.83,4.39s-3.83-1.63-3.83-4.39v-7.62h1.16v7.44c0,.91,0,1.73.61,2.5.5.64,1.19.93,2.06.93s1.56-.29,2.06-.93c.61-.77.61-1.58.61-2.5v-7.44Z"/>
        <path class="cls-2" d="m306.17,92.68h2.66c1.21,0,2.12.08,2.69.29,1.19.46,1.9,1.5,1.9,2.82,0,.59-.08.93-.34,1.45-.6,1.22-1.76,1.7-3.67,1.7l4.17,5.45h-1.43l-4.15-5.45h-.66v5.45h-1.16v-11.72Zm1.16,1.14v3.98c.64,0,1.3.02,1.92.02,1,0,1.77-.1,2.27-.51.42-.34.69-.91.69-1.52,0-1.14-.77-1.97-2.51-1.97h-2.37Z"/>
        <path class="cls-2" d="m330.27,92.68l5.39,11.72h-1.24l-1.82-3.85h-4.99l-1.8,3.85h-1.29l5.47-11.72h.27Zm-.15,2.48l-2,4.24h3.96l-1.96-4.24Z"/>
        <path class="cls-2" d="m347.15,104.4v-11.72h.24l7.66,8.97v-8.97h1.16v11.72h-.26l-7.65-8.86v8.86h-1.16Z"/>
        <path class="cls-2" d="m367.54,93.82v-1.14h6.34v1.14h-2.58v10.58h-1.16v-10.58h-2.61Z"/>
        <path class="cls-2" d="m391.1,98.46c0,1.34-1.06,2.45-2.41,2.45s-2.42-1.11-2.42-2.45,1.08-2.45,2.42-2.45,2.41,1.09,2.41,2.45Z"/>
      </g>
      <g>
        <path class="cls-3" d="m71.13,24.46c-.97,1.19-2.8,1.08-4.42,1.4l-3.56.86c-3.34.86-6.14,1.94-8.62,3.99-1.4,1.19-3.77,2.05-5.39,3.34-3.13,2.26-6.14,4.63-9.16,7.11-.43,1.19-1.83,2.8-3.13,3.23-1.94.54-6.04,5.06-7.11,6.68-2.05,2.59-6.25,4.09-7.44,6.25-.86,1.19-1.29,2.37-2.91,2.8-1.4.32-6.68,5.28-9.59,6.47-1.83.75-4.42,1.83-6.47,1.83s-3.34-1.19-3.34-3.23c0-1.19.97-1.29,1.83-1.29s1.72.22,2.59.22c2.59,0,6.9-2.37,8.95-4.1,1.29-1.19,2.26-.97,3.88-1.72,1.72-.86,3.23-2.16,4.53-3.45,3.02-2.91,5.71-6.36,9.27-8.84,2.05-1.29,2.8-1.83,3.99-3.99.65-1.29,7.33-6.25,9.05-7.97,3.45-3.45,10.13-8.95,14.77-10.02,4.1-.97,5.07-4.53,9.48-4.53,1.62,0,3.99.75,3.99,2.8,0,.86-.65,1.62-1.19,2.16Zm.11,18.75c-1.29,0-3.66,0-4.63-1.19-1.51-1.51-2.48-4.96-4.85-4.96-3.66,0-13.58,8.95-16.17,11.53l-3.02,3.02c-1.19,1.19-2.48,1.83-3.23,3.23-.97,1.72-2.59,2.37-4.42,2.91-1.62.43-2.59,3.45-2.59,5.07,0,.65.11,1.19.43,1.51,2.37,3.02,3.99,1.62,6.79,2.8.32.11.75.22,1.29.22,1.62,0,2.91-.65,4.53-.65.75,0,.97.43,1.72.43.97,0,1.94-.75,2.91-.75.32,0,.65.21.97.21,2.69,0,5.28-1.29,8.19-1.29.75,0,1.72,0,1.72.97,0,1.94-7.98,3.34-9.7,3.66-3.34,1.19-7.44,1.29-11.32,1.29-3.34,0-10.56-.11-11.75-3.56-.32-1.4-.54-2.69-.54-3.88,0-1.62.32-4.1,1.62-5.28,4.85-3.99,9.38-9.59,14.44-13.15,1.4-.97,1.83-2.48,3.13-3.23,3.34-1.62,6.14-4.74,9.7-6.47,1.62-.86,3.77-2.26,5.5-2.26,4.63,0,4.42,6.14,7.54,6.14.75,0,1.29-.22,2.05-.22.86,0,1.62.54,2.48.54.54,0,.97-.22,1.51-.32,6.79-2.26,11.64-4.53,16.49-10.13,2.59-2.91,5.28-6.79,5.28-10.78,0-1.19-.22-2.05-.22-3.02s.22-1.83.22-2.8c0-7.87-12.18-9.48-18.11-9.48-2.26,0-4.53.54-6.79.54-.43,0-.86-.32-1.29-.32-.75,0-2.69,1.08-3.66,1.4-3.13.86-7.87.86-10.45,2.91-2.37,2.05-7.33,1.83-9.05,3.88-1.08,1.29-7.65,4.2-9.59,5.06-2.59,1.4-4.96,3.02-7,4.85-2.69,2.37-9.81,7.76-11.32,10.99-.86,2.26-4.31,2.69-5.17,4.63-.75,1.62-2.37,2.37-2.8,4.1-.32,2.05-4.42,4.96-4.42,6.47,0,1.72-1.08,4.85-1.94,6.47-.54.86-2.26,5.28-3.23,5.28-.86,0-.97-2.05-.97-2.59,0-1.51.32-2.91,1.08-4.09,1.29-2.48,1.62-5.17,3.45-7.33.75-.86.97-1.83,1.4-3.02.75-1.72,1.62-2.91,3.02-4.31.75-.75,1.51-1.4,2.05-2.16.75-1.19.86-1.94,2.16-2.48,1.94-.86,3.66-6.79,6.36-7.44,2.48-.54,3.56-3.13,6.47-4.74,3.88-2.05,7.44-6.9,11.1-8.3,1.72-.54,3.23-1.4,4.85-2.37,3.99-2.16,9.27-5.28,13.58-6.36,5.28-1.29,10.78-1.94,15.84-3.77,1.72-.54,7.01-.65,8.95-.65,4.85,0,14.33.43,18.32,3.56,2.48,2.05,3.13,5.39,3.13,8.41,0,16.71-15.52,31.25-32.01,31.25Z"/>
        <path class="cls-3" d="m97.64,57.01c-.86,1.19-2.69,4.1-3.88,4.96-1.19.75-2.26,2.26-3.45,2.59-.22,0-.43.11-.75.43-.86.86-.86.43-1.83.86-.86.32-1.29.75-2.48.86-.65.11-1.4.32-2.16.65-.54.54-1.19.75-1.72.86-.54.11-1.19.32-1.94.65-.97.32-1.72.54-2.48.54-.54,0-1.19-.11-2.05-.11-.43,0-.86.22-1.4.22-.32,0-.65-.11-.97-.11s-.43.21-.75.21c-.75,0-1.29-.75-2.16-.86-.86-.11-1.19-1.18-1.19-1.94,0-2.05,1.83-2.05,1.83-4.63,0-.54-.11-1.08-.11-1.62s.32-.97.97-1.08c.97-.32,1.29-.43,2.05-1.19.54-.75,2.48-.75,3.34-1.29,1.19-.75,2.48-.97,3.66-1.72.54-.43,2.91-1.51,3.66-1.51.54,0,.75.32.75.86,0,1.4-1.29,1.19-1.72,1.94-.43,1.19-1.62,1.62-2.8,1.72-.86,0-3.99,2.37-4.2,3.12-.32.86-2.05,1.19-2.05,2.48,0,1.4.97,1.29,2.16,1.4.75,0,1.29.32,2.05.32.32,0,.43-.22.86-.22s.86.11,1.29.11c.86,0,1.19-.54,1.94-.54,3.56-.32,5.6-2.59,8.73-3.88.43-.32.86-.32,1.19-.65.75-.75,1.51-2.37,1.51-3.34,0-1.29-.65-2.16-2.05-2.69-.32-.11-.65-.32-.97-.65-.65-.97-3.56-.75-3.56-2.59,0-1.19.75-2.59,2.05-2.59,1.19,0,2.05.75,3.23.75,1.62,0,5.82,4.63,5.82,6.47,0,.43-.11.75-.43,1.19Z"/>
        <path class="cls-3" d="m140.22,55.61c-.54,1.62-3.23,5.39-4.63,6.25-2.26,1.62-5.07,2.48-7.22,4.2-1.19.86-3.34.65-4.1,1.4-.65.65-4.2.54-5.39,1.08-1.62.75-4.31,1.29-5.93,1.29-.86,0-.86-.54-1.72-.54s-1.72.54-2.69.54c-1.62,0-3.77-3.23-6.47-3.23-.75,0-.86-.65-1.62-.65-.32,0-.75,0-1.19.11-.11,0-.32.11-.43.11-.75,0-1.4-.22-1.4-.86,0-.43.22-.86.75-1.08,2.37-1.19,2.05-4.53,5.17-4.53,1.08,0,1.29,1.29,2.69,1.29.97-.11,1.08-.43,2.48-.65,1.83-.32,1.83-.75,3.45-.75.11,0,2.26-.43,2.37-.43.86,0,3.12-1.72,4.42-2.05,2.05-.43,3.56-1.94,5.39-2.37,2.16-.65,8.3-3.02,9.92-4.42.75-.54,2.91-1.08,3.88-1.08.43,0,.65.32,1.4.32,1.29,0,2.16,1.4,2.16,2.69,0,2.05-.97,1.94-1.29,3.34Zm-7.65-2.16h-1.4c-1.83.32-2.59,1.62-4.2,2.16-1.4.54-2.37,1.72-3.99,2.05-1.62.32-2.59.97-3.77,1.51-1.4.75-2.8.54-4.2,1.4-1.29.97-3.02,1.51-4.63,2.05-.75.32-1.51.11-1.51,1.08,0,2.16,3.45,1.62,4.96,1.94.11.11.43.11.86.11,1.62,0,2.91-1.08,4.53-1.08.43,0,.75.11,1.08.11,1.72,0,2.91-.97,3.66-.97.43,0,.65.32,1.19.32,1.19,0,3.66-1.51,4.63-2.05,2.8-1.4,1.29-1.29,2.59-2.59,1.4-1.29,1.83-2.16,1.83-3.99,0-1.29,0-2.05-1.62-2.05Z"/>
        <path class="cls-3" d="m224.17,62.94c-.54.43-2.69,1.62-3.66,1.94-.97.32-2.91,1.18-3.88,1.62-.43.22-2.05.65-3.56,1.19-1.94.75-4.96,1.4-5.5,1.4-1.29,0-3.23-.22-4.74-.97-1.19-.54-2.05-1.51-2.05-2.8v-.97c0-.86,0-1.94-.32-3.02,0-.22-.11-.32-.11-.54,0-.75.32-1.62.32-2.05,0-.22,0-.32-.22-.32-.65,0-2.48.75-4.1,2.16-1.72,1.4-2.59,1.94-3.66,2.37-1.62.75-3.02,3.02-4.74,3.34-.75.11-1.51.86-2.26,1.19s-1.51.54-2.37.54c-1.51,0-2.37-.54-2.8-1.72-.22-.54-.65-.65-.65-1.4,0-.32.11-.75.32-1.4.43-1.19.11-2.37.43-3.56.22-.65.22-1.72.22-2.37,0-.75-.43-.86-.86-1.19-.43-.43-1.19-.54-1.94-.54-.43,0-1.83.22-3.56,1.29l-2.05,1.29c-.97.65-1.83,1.29-2.05,1.51-.75.75-1.4,1.19-2.37,1.19-.75,0-2.48,1.83-3.34,2.26-1.62.54-2.37,2.26-3.34,3.45-.54.75-1.19,1.94-2.37,1.94-.54,0-1.83-.43-1.83-1.18,0-1.83,1.4-2.8,2.37-4.85.54-1.19.97-2.8.97-5.07,0-.86-.11-2.05-1.29-2.05-1.62,0-3.23,1.19-4.2,2.16-1.19,1.19-2.91,1.19-3.88,2.37-.54.54-1.94,1.08-2.59,1.4-1.62.75-1.94.97-3.56,1.83-.32.32-.97.65-1.51.65-.32,0-.65-.22-.65-.65,0-.21-.11-.54-.11-.75,0-.11,0-.22.11-.32.43-.43,1.4-.75,2.37-1.4,1.08-.75,1.83-1.08,3.02-1.83,1.19-.86,2.16-1.4,3.34-2.16,2.05-1.29,3.77-2.8,5.82-4.42,1.29-1.19,2.91-2.16,4.74-2.16,3.56,0,3.66,1.72,3.66,3.88v.86c0,.43,0,.97.22,1.51,0,.22,0,.43.11.65.11.32.32.54.65.54.54,0,1.62-1.29,2.37-1.62,1.62-.54,2.37-1.08,3.56-2.05.65-.54,2.69-1.4,4.63-2.05s3.77-1.19,4.53-1.19c1.51,0,2.26,1.19,2.8,2.8.11.54.22,1.19.22,1.83,0,.86,0,1.72-.11,2.59-.11.86-.43,1.4-.43,2.16,0,0-.11,1.19-.32,2.05-.11.22-.11.43-.11.65,0,.86.65.86.97.86.86,0,3.77-1.94,4.53-2.26,2.16-.86,3.13-1.72,5.07-3.02,1.19-.75,2.37-1.62,3.34-2.8,1.72-2.05,5.17-4.1,7.87-4.1,1.19,0,1.29.86,1.29,2.05s.32,1.83.32,3.23c0,.86-.86,2.69-.86,3.34,0,.22-.65,1.51-.75,1.72-.11.32-.22.75-.22,1.08,0,.75.32,1.51,1.29,2.05.32.11.75.22,1.4.22.75,0,1.51-.11,2.05-.11,1.4,0,4.2-.22,5.6-.75l3.02-.97,1.72-.86c1.19-.43,3.02-1.72,4.1-1.83.32,0,.65.22.65.65-.11.65-.65,1.19-1.08,1.51Z"/>
        <path class="cls-3" d="m267.93,64.12c-.75.22-1.51,1.08-2.26,1.4-2.59,1.08-2.48,1.62-4.09,1.94-.75.11-.97,0-1.51.43-.75.43-1.72.65-2.48.65-.43,0-.65.21-1.08.21-.75,0-1.51.22-2.37.22-.75,0-1.19-.22-1.94-.22-.43,0-.75.11-1.08.11-1.62,0-3.77-1.19-4.53-2.48-.54-.86-.54-3.23-1.51-3.23-.54,0-.97-.11-1.51-.11-2.05,0-2.16,2.26-5.17,2.8-1.19.11-3.12,1.29-3.45,1.29-.75,0-1.4.54-2.16.54-.43,0-.43-.22-.75-.22-.54,0-1.08.43-1.72.43-.32,0-.54-.11-.86-.11-.86,0-1.51.43-2.26.43-.97,0-2.05-.32-2.91-.32-.97,0-1.94-.86-2.69-1.19s-.86-1.72-.86-2.48c0-2.05,3.88-4.96,5.17-6.57.54-.75,1.29-.86,2.05-1.62.86-1.19,2.37-1.51,3.34-2.69.75-.75,3.66-1.62,3.88-1.62.54-.43,1.29-.54,1.62-.97.75-.86,2.05-1.4,3.23-1.4.43,0,.75.32,1.08.32.75,0,.97-.54,1.72-.54,1.62,0,3.45,1.08,3.45,2.69,0,1.72-3.13,2.26-4.63,2.26-.32-.11-2.16-.43-2.48-.43s-.75.11-1.29.43c-.22.11-.43.21-.65.21-.32,0-.65-.11-1.08-.11-.54,0-1.08.11-1.72.54-1.19.97-2.37,1.62-3.13,2.16-.43.32-.97.86-2.16,1.72-.75.54-2.59,2.48-2.59,3.34,0,2.05,3.02,2.91,4.31,2.91,1.83,0,3.34-1.29,5.39-1.29s1.94-1.08,3.23-1.29c.11,0,.86-.22,1.19-.22,1.19,0,3.56-2.26,4.96-2.8.97-.32.86-1.29,1.83-1.72.86-.43.54-1.19,1.4-1.29,1.72-.43,3.34-1.72,5.17-1.72.54,0,1.18.32,1.18.86,0,.43-.54,1.83-.97,1.83-.32,0-.32-.22-.65-.22s-.43.75-.43,1.08c-.32,1.62-1.4,2.91-1.4,4.53,0,2.05,2.26,2.05,3.88,2.37.54.11.97.43,1.72.43.54,0,.86-.43,1.62-.43.32,0,.43.22.75.22.54,0,.97-.75,2.26-.75,1.19,0,2.8-1.08,3.77-1.4,1.19-.43,2.05-1.29,3.23-1.29.43,0,1.29,0,1.29.54,0,.75-1.62,1.62-2.37,1.83Z"/>
        <path class="cls-3" d="m312.22,63.15c-1.62.54-2.48,1.51-3.88,2.05-.97.32-1.83.75-2.8,1.29-2.05,1.29-5.28,1.83-8.73,2.59-1.83.43-3.88.43-5.6.43h-1.94c-1.19,0-2.59-.22-4.1-.22s-1.94-1.19-3.12-1.51c-1.83-.54-1.72-1.51-1.94-3.02,0-.32-.11-.65-.11-.97,0-.97.43-1.72,1.62-2.59,1.08-.75,1.94-2.48,2.91-3.12.43-.22.86-.86,1.29-1.62.54-.86.97-1.83.97-2.37,0-.32-.43-.65-.86-.65-.75,0-1.94.54-2.48.97-1.4,1.29-2.48,2.26-4.1,3.12-.86.54-1.62,1.19-2.48,1.94-1.08.86-2.05,1.19-3.23,1.72-1.19.54-2.37,1.08-3.56,1.94-1.19.75-1.29.43-2.59.97-1.51.65-3.66,2.05-4.96,2.05-.54,0-1.19-.43-1.19-.97s2.91-1.72,3.66-2.05c1.29-.32,1.72-1.19,3.02-1.51,1.08-.32,2.16-.97,3.13-1.51l3.77-2.05c1.62-.97,3.23-2.05,4.63-3.34.86-.86,1.72-1.62,2.69-2.37.97-.65,2.05-1.29,3.12-1.72,1.08-.43,2.26-.75,3.56-.75,1.08,0,2.26.21,4.1.43,1.08.11,1.94,1.08,1.94,2.26v.43c-.32,2.16-.54,3.45-2.37,4.63-1.62.97-2.26,2.8-3.88,3.67-.86.43-1.29,1.62-1.29,2.48,0,1.19.97,1.94,2.26,2.37,2.16.75,5.07.75,6.14.75.86,0,1.83-.11,2.59-.54,2.59-1.4,4.31-.22,6.79-2.48.43-.32.97-.54,1.62-.86.86,0,1.62-.21,2.37-.75,1.62-1.19,2.37-1.4,4.2-2.05l.32-.22.43-.21c.43,0,.65.32.65.86,0,1.62-1.4,2.16-2.59,2.48Z"/>
        <path class="cls-3" d="m338.31,63.37c-.97.75-2.59,1.08-3.34,1.62s-1.19.65-2.05.75c-.86,0-4.2,1.29-4.74,1.62-.54.32-1.19.54-1.72.54-.75,0-2.05.32-2.8.32-.32,0-.75.11-1.29.21-1.83.75-2.26.65-4.31.75-1.19.11-3.34.54-4.53.54-2.05,0-4.31-1.62-4.31-3.77,0-2.26,2.26-4.63,4.1-5.6,4.31-2.26,6.47-6.14,10.67-8.41.86-.43,2.26-2.26,3.02-2.26s.75,1.29.75,1.72c0,1.62-.97,2.05-2.16,2.8-.43.11-.75.32-.97.43-1.62.97-3.34,2.69-4.53,4.31-1.19,1.51-4.63,4.09-4.63,6.04v.43c0,.43.65.65,1.19.65h1.62c.97,0,1.62.43,2.59.43,1.29,0,3.02-.43,4.85-.97,1.83-.54,3.56-.97,4.31-.97.97,0,2.59-.86,4.1-1.4.97-.32,1.83-.86,2.59-1.19.54-.32,1.19-.65,2.05-.65.43,0,.43.21.43.54,0,.65-.32,1.08-.86,1.51Zm1.51-29.74c-.11,0-.43-.11-.86-.22-1.62-.54-.43-1.72-2.16-2.26-.43-.11-.97-.43-.97-.86,0-1.29,2.8-2.59,3.77-2.59.32,0,.65.22.97.75.32.97.86,1.72.86,2.69s-.43,2.48-1.62,2.48Z"/>
        <path class="cls-3" d="m393.27,62.51c1.08-.32,3.45-1.83,4.63-1.83.32,0,.65.43.65.75,0,.11,0,.54-.65.97-.75.54-1.4,1.08-3.02,1.83-1.72.75-3.66,1.51-4.2,1.83-1.18.32-2.37.65-3.56,1.51-1.19.86-4.53,1.4-6.14,1.4-1.29,0-4.2.22-5.5.22-1.72,0-3.56-1.83-3.56-3.45.11-1.62,1.19-2.91,1.29-4.74,0-.86-.86-1.62-1.72-1.62-1.4,0-2.8.75-4.1,1.19-1.94.43-2.91.86-4.2,2.26-1.19,1.19-4.96,2.91-8.41,4.09-1.94.65-3.77,1.19-4.85,1.19-1.51,0-2.48-.65-2.48-2.26l.22-1.19c.54-2.05.54-3.88,1.51-5.93.22-.32.32-.65.32-1.4,0-.54-.32-.75-.75-.75s-2.69,2.16-5.28,3.66c-1.62.86-2.37,1.29-2.59,1.62-.75.75-3.45,2.16-4.42,2.16-.75,0-1.08-.32-1.08-.97,0-.21.11-.43.22-.75.32-.43,1.51-.65,2.05-1.08,1.72-1.19,2.26-1.19,3.23-2.16,2.59-1.51,3.67-2.48,6.04-4.42,2.16-1.83,1.4-1.83,3.12-2.69,1.19-.43,2.8-1.51,3.99-1.51,1.4,0,1.83,2.48,1.83,3.99v.54c-.11,2.48-2.16,4.1-2.37,6.68,0,.97.43,1.4,1.29,1.4s1.72-.43,2.48-.75c1.72-.75,3.23-1.62,4.63-2.59.97-.54,1.83-1.4,3.02-1.72,1.62-.43,2.69-1.51,4.31-1.83,1.72-.32,4.63-1.19,5.93-2.05,1.19-.97,3.66-2.16,5.07-2.16,1.29,0,1.72,1.19,1.72,2.37l-.21,1.19c-.54,1.4.21,2.05-1.62,2.8-1.83,1.19-.75,2.16-1.62,2.91-.43.43-.65,1.19-.65,1.83,0,.32.11.97.21.97,0,1.29,1.29,1.51,2.48,1.51.97,0,2.26.21,3.45.21.97,0,2.59-.86,3.77-1.19.97-.11,1.72-.43,2.48-.65,1.19-.43,1.94-1.08,3.02-1.4Z"/>
        <path class="cls-3" d="m426.47,57.01c-.86,1.19-2.69,4.1-3.88,4.96-1.19.75-2.26,2.26-3.45,2.59-.22,0-.43.11-.75.43-.86.86-.86.43-1.83.86-.86.32-1.29.75-2.48.86-.65.11-1.4.32-2.16.65-.54.54-1.18.75-1.72.86-.54.11-1.19.32-1.94.65-.97.32-1.72.54-2.48.54-.54,0-1.19-.11-2.05-.11-.43,0-.86.22-1.4.22-.32,0-.65-.11-.97-.11s-.43.21-.75.21c-.75,0-1.29-.75-2.16-.86-.86-.11-1.19-1.18-1.19-1.94,0-2.05,1.83-2.05,1.83-4.63,0-.54-.11-1.08-.11-1.62s.32-.97.97-1.08c.97-.32,1.29-.43,2.05-1.19.54-.75,2.48-.75,3.34-1.29,1.19-.75,2.48-.97,3.66-1.72.54-.43,2.91-1.51,3.66-1.51.54,0,.75.32.75.86,0,1.4-1.29,1.19-1.72,1.94-.43,1.19-1.62,1.62-2.8,1.72-.86,0-3.99,2.37-4.2,3.12-.32.86-2.05,1.19-2.05,2.48,0,1.4.97,1.29,2.16,1.4.75,0,1.29.32,2.05.32.32,0,.43-.22.86-.22s.86.11,1.29.11c.86,0,1.19-.54,1.94-.54,3.56-.32,5.6-2.59,8.73-3.88.43-.32.86-.32,1.19-.65.75-.75,1.51-2.37,1.51-3.34,0-1.29-.65-2.16-2.05-2.69-.32-.11-.65-.32-.97-.65-.65-.97-3.56-.75-3.56-2.59,0-1.19.75-2.59,2.05-2.59,1.19,0,2.05.75,3.23.75,1.62,0,5.82,4.63,5.82,6.47,0,.43-.11.75-.43,1.19Z"/>
      </g>
      <path class="cls-1" d="m89.3,111.16c-.84-.02-1.67-.04-2.51-.06,9.64-.32,19.28-.31,28.93-.05-.41.04-.82.08-1.28.12,1.56.23,3.08.14,4.6.17,2.06.04,4.11.04,6.17.06.94,0,1.88,0,2.82.01,1.14.02,2.28.07,3.41.17h-2.67v.13c.57.14,1.15.03,1.73.06.6.02,1.2.03,1.8.04.6.01,1.2.02,1.8.02.58,0,1.16-.01,1.74,0,.6,0,1.2.02,1.8.04.6.02,1.2.07,1.79.08.59.01,1.19,0,1.78.11h-1.81s-.01.07-.02.1c.1.03.2.09.29.09.46,0,.92,0,1.37-.03.27-.02.38.09.39.32.01.3,0,.59,0,.96.2,0,.39.02.58.03.14,0,.29-.02.42.02.09.03.18.14.21.23.02.05-.1.22-.14.21-.35-.04-.33.28-.47.48-.44,0-.88,0-1.32,0-.21,0-.41,0-.37.39-.09-.16-.13-.23-.24-.4-.02.5-.23.73-.79.64.25.2.62.03.51.48-1.47.21-2.97.05-4.49.03-.05-.15-.09-.25-.11-.36-.04-.24-.18-.33-.42-.33-.3,0-.6,0-.9,0,0-.04,0-.08-.01-.12.35-.05.69-.1,1.12-.16-.75-.05-1.42-.13-2.09-.14-.3,0-.5-.07-.55-.4-.3.02-.58.04-.85.05,0,.03,0,.06,0,.09.19,0,.38.02.57.03,0,.02,0,.05.01.07-.22.06-.44.13-.69.2-.08.19-.06.6-.54.35-.02-.25-.03-.52-.05-.82-1.41-.24-2.79.1-4.03.01-.25.22-.39.35-.53.48-.07.07-.14.15-.19.23-.13.2-.41.19-.43.05-.06-.5-.46-.25-.72-.37-.03-.13-.07-.28-.1-.4-.15-.2-.57.04-.51-.38-.1,0-.21-.02-.31-.03.03.46-.36.34-.58.39-.33.07-.67.07-1.01.13.3.02.6.03.93.05-.35.24-1.56.31-3.14.21-.05-.12-.11-.26-.18-.43h-3c-.06-.16-.1-.27-.14-.39h-.77q-.18.72.4,1.12c-.17.1-.3.18-.48.28-.02.16-.04.35-.07.62-.2.01-.41.03-.68.04-.02-.3-.03-.55-.05-.8q-.02-.37-.47-.53c.1-.05.16-.08.21-.1.05-.02.1-.03.25-.08-.32-.06-.54-.11-.8-.16-.05.15-.09.27-.15.45-.34.05-.7.1-1.14.16.11-.55-.48-.62-.57-1.07-.26.02-.53.04-.84.06v1.29c-.45.18-.85.01-1.26,0,.03-.33.29-.2.46-.28-.39-.02-.74-.03-1.19-.06.13.11.19.15.3.24-.17.07-.3.12-.47.18-.03.19-.06.4-.1.64h-1.06c-.05-.37-.1-.74-.15-1.14h-1.3c-.06-.25-.12-.55-.19-.86-.7-.04-1.39-.08-2.08-.13-.19-.01-.41.02-.47-.26-.01-.06-.15-.13-.24-.14-.52-.05-1.03-.09-1.55-.12-.12,0-.34.07-.35.14-.05.25-.2.35-.42.43-.07.03-.11.2-.11.31-.01.32,0,.63,0,.94-.35.16-.49,0-.72-.19-.19-.15-.53-.11-.47-.51h-.83c-.05.14-.1.28-.14.42-.04.14-.07.28-.14.56-.14-.26-.2-.38-.27-.51-.03.02-.08.04-.09.07-.08.3-.14.6-.24.89-.02.06-.18.07-.28.1-.08-.37-.14-.7-.21-1.03-.27-.08-.53-.15-.88-.25.18-.07.27-.11.48-.19-.61-.08-1.1-.15-1.59-.22,0-.02-.01-.05-.02-.07.11-.04.22-.08.33-.12,0-.03,0-.06,0-.09-.41-.02-.81-.04-1.25-.07-.04.28-.1.51-.41.51-.18.46-.62.41-.97.43-.33.02-.43.3-.7.44-.1-.3-.19-.55-.29-.85-.24-.04-.52-.08-.78-.14-.1-.02-.25-.09-.26-.16-.04-.19-.18-.17-.3-.23-.11-.04-.2-.16-.28-.25-.04-.04-.04-.15-.07-.15-.49-.04-.34-.45-.41-.74-.19-.03-.36-.07-.54-.09-.19-.02-.41.02-.46-.27,0-.05-.11-.1-.18-.12-.3-.1-.61-.19-.94-.29.27-.19.49-.35.7-.5.37.02.74.05,1.11.07,0-.03,0-.05,0-.08h-1.11Zm12.94,1.32s0,.08,0,.13l.45-.08s0-.03,0-.05h-.44Zm16.9,1.2s0,0,0,0h-.34s0,0,0,0h.35Zm-18.05.21s-.02,0-.02,0c0,.11-.01.22-.02.33.01,0,.03,0,.04,0v-.33Zm6.36.23s0,.06,0,.08h.27s0-.06,0-.08h-.27Z"/>
      <path class="cls-1" d="m314.06,81.1c.23.03.43.05.64.07,0,.04.01.08.02.12-.15.07-.31.13-.56.24.28.08.46.13.67.18.02.15.05.31.08.5.41-.04.55.67,1.11.31-.07-.06-.13-.12-.15-.13.11-.14.24-.3.37-.48.02.05.05.13.12.29.06-.18.1-.31.15-.49.45-.06.92-.13,1.46-.2-.37-.06-.67-.1-1.08-.17.45-.4.91-.13,1.3-.33.04-.13.08-.27.13-.43.26-.03.51-.06.78-.09.07.2.1.37.19.52.03.06.17.05.26.08.14.21-.14.63.33.66.41.03.26-.38.45-.6.13.01.29.02.55.04-.17.18-.26.27-.39.4.28.05.53.13.39.57.06-.04.11-.07.17-.11.03-.22.07-.44.11-.72.01.13.02.21.03.3.06.67.06.66.76.61.32-.02.65,0,.98.01,0,.05,0,.09,0,.14-.16.03-.32.05-.49.08.02.01.04.04.06.04.41.07.83.11,1.23.21.14.03.24.19.45.38h1.38c.09-.21.08-.54.52-.44.04-.55.07-1.06.11-1.59h.78c.02.19.04.36.06.56.38.17.79.15,1.24.12.03-.24.05-.47.08-.69.03,0,.06-.01.09-.02.05.15.09.3.14.45.01-.02.04-.04.04-.06.02-.22.03-.44.06-.65.03-.22.16-.3.38-.27.21.17.06.59.48.62.05,0,.09.31.15.54.15.02.32.03.49.06.27.04.62-.1.7.34,0,.04.13.09.2.09.48,0,.95,0,1.44,0,.05-.15.09-.27.13-.41.28-.04.56-.08.84-.13.02-.2.04-.39.06-.61h1.08c.21.27-.06.82.52.81-.03.57.58.19.72.58.02-.07.02-.05,0-.04-.01.01-.04.01-.05.03-.02.03-.03.06-.07.13.15.05.32.06.42.15.09.07.09.24.15.42.07-.13.11-.21.15-.28q.18.33,1.07.44s.02.04.01.05c0,.01-.03.02-.05.03-.05.02-.11.04-.25.09.44.11.72.19,1.04.27.03.21.07.41.11.68.35-.03.68-.05,1.04-.08.05-.22.1-.42.15-.65.26-.04.51-.08.81-.12.04-.44.08-.86.13-1.38.18.05.42.09.42.14.02.34.32.31.5.4.03.16.05.29.08.42.33.06.65.11,1.04.17-.16.07-.26.11-.48.2.42.07.7.11,1.03.17v.67c-.62.05-1.23.11-1.85.16.09.07.15.13.32.27-.4.02-.67.05-.94.05-1.98.03-3.95.06-5.93.07-3.3.02-6.59.06-9.89.04-5.06-.02-10.11-.09-15.17-.12-2.5-.02-5,0-7.49,0-.6,0-1.2-.01-1.8-.02-.13,0-.25-.03-.38-.05,0-.04,0-.08,0-.12.22-.02.44-.05.67-.07,0-.01,0-.03,0-.04-.49-.03-.98-.08-1.47-.09-1.2-.01-2.4,0-3.6-.01-2.05-.02-4.11-.05-6.16-.08-.24,0-.49-.09-.87-.16.26-.13.39-.19.51-.26,0-.03-.01-.07-.02-.1h-1.18c-.2.08-.05.62-.56.43-.05-.47-.09-.95-.14-1.44-.54-.09-1.05-.18-1.56-.26v-.14c.38-.08.75-.22,1.13-.23.3,0,.41-.16.49-.4h.95c.04-.24.08-.45.12-.67.04,0,.07,0,.11-.01.04.15.08.3.12.44-.02-.33.01-.63.46-.68-.1-.06-.16-.09-.23-.13.02-.03.03-.08.05-.09.52-.16,1.05-.16,1.59-.06.37.07.75,0,1.13.02.26,0,.52.03.77.11-.09.02-.18.05-.28.07,0,.03,0,.07,0,.1.47.05.95.11,1.44.16.05.21.09.4.13.59,1.08.08,2.15.16,3.25.24.04-.27.07-.5.11-.75h.73c.02.34.05.66.07,1.03,1.25.18,2.5-.03,3.79.05,0-.34.16-.53.53-.46.03-.25.06-.45.09-.7.11,0,.25-.04.29,0,.27.34.51.7.85,1.18.36.2.87.12,1.42-.1.02-.07.04-.18.07-.34.9.03,1.81.06,2.72.09,0,.03,0,.05,0,.08h-2.14s0,.08,0,.12c.59.02,1.18.04,1.76.07.48.02.96.07,1.43.09.38.01.76-.01,1.13-.01.44,0,.88.03,1.31,0,.28-.02.36.14.4.38.19-.05.35-.08.5-.12-.1-.03-.2-.07-.44-.15.24-.07.35-.09.44-.14.1-.04.18-.11.27-.17-.08-.09-.16-.18-.25-.26-.04-.04-.11-.05-.23-.1.02-.31.04-.64.06-1.01.27-.05.51-.1.81-.15.05.57.09,1.08.14,1.62h1.02c.1-.32.2-.66.31-1.02Zm-17.82.88q.34.18.58,0h-.58Zm7.88.63s.02-.08.02-.12c-.07-.01-.14-.04-.21-.04-.07,0-.14.03-.21.05v.08c.14,0,.27.01.4.02Zm2.62,1.9s0,.02,0,.04l.3-.02c-.1,0-.2,0-.3-.01Zm14.95-1.91s.01-.1.02-.15c-.08,0-.17,0-.25,0,0,0-.02.09-.01.09.08.02.16.03.24.05Z"/>
      <path class="cls-1" d="m180.59,114.62c-.02-.1-.05-.19-.07-.29-.02-.08-.02-.15-.04-.27-.21-.04-.42-.07-.65-.11-.02-.11-.03-.22-.05-.33-1.48-.45-2.96.13-4.44.08.21,0,.43,0,.64,0,.2.01.41.04.61.07,0,.05,0,.11-.01.16-.64.02-1.28.05-1.94.07-.07.16-.12.3-.19.45h-.81c-.18-.14-.01-.64-.49-.47-.05-.33-.09-.58-.13-.85-.6-.13-1.17.04-1.76.09.12.06.25.12.5.25h-3.02c-.13-.07,0-.42-.29-.32-.07.02-.09.16-.19.33-.82.04-1.73.11-2.64.11-2.86.02-5.71.02-8.57.02-.62,0-1.24-.02-1.85-.07-.29-.02-.4.1-.39.39h-1.09c-.01-.29-.03-.56-.04-.86.23-.04.41-.07.62-.11.02-.19.03-.36.05-.6.45-.02.88-.06,1.31-.06,1.96,0,3.91.02,5.87,0,.31,0,.75.19.89-.33.24-.02.48-.05.71-.06,1.5-.01,3-.02,4.5-.03,4.16-.02,8.31-.04,12.47-.06,1.92-.01,3.84-.03,5.75-.03,1.38,0,2.76,0,4.13,0,.84,0,1.67,0,2.51-.01.61-.01,1.23-.04,1.84-.07,0-.04,0-.09,0-.13h-3.88s0-.07,0-.1c.3-.02.6-.04.89-.05,1.68,0,3.36-.01,5.03,0,.28,0,.58-.11.76.28.05.1.44.08.67.06.11-.01.21-.17.4-.33.45,0,1,0,1.56,0,.86,0,1.72-.01,2.58-.01.18,0,.41-.06.46.25,0,.05.16.12.24.12,1.31,0,2.63.08,4.07-.08-.21-.1-.3-.14-.38-.17,2.5-.2,4.98.02,7.46-.03-2.04.03-4.07.06-6.11.1,3.13.2,6.27.19,9.4.13,0-.05,0-.1,0-.15h-2.08v-.06c1.86-.09,3.73-.18,5.59-.27,0-.04,0-.08,0-.12-.29-.03-.59-.07-.88-.1,0-.02,0-.04,0-.07h2.85s0,.05,0,.07c-.46.03-.91.07-1.37.1,0,.02,0,.03,0,.05,1.18.11,2.37.21,3.55.32,0,.03,0,.07.01.1-.3.06-.6.13-.93.2-.05.14-.09.28-.15.46-.45.08-.92.16-1.41.25.06.25.6-.08.46.43-.8.08-1.63.15-2.52.24.13.08.21.14.36.24-.13.02-.21.05-.29.05-1.34.03-2.67.06-4.01.09-.24,0-.47.03-.52-.32-.02-.14-.22-.15-.28.05-.02.06-.02.13-.05.28q-.19-.46-.91-.63c-.01-.14-.02-.29-.03-.43-.03,0-.05,0-.08,0-.02.14-.04.28-.07.46-.12.02-.25.05-.38.08-.09.02-.25.05-.26.1-.16.55-.62.33-.97.39-.27.05-.32-.15-.4-.47-.17.61-.66.51-.98.54-.83.06-1.67-.05-2.51-.07-.28,0-.44-.11-.45-.39h-1.41s-.03.05-.04.07c.06.04.13.07.25.14-.28.13-.63.2-.5.68-.12-.1-.15-.13-.24-.2-.07.2-.14.4-.21.62-.36.05-.74.07-1.1.17-.37.1-.58-.26-.92-.25-.06-.25-.11-.5-.16-.75q-.41-.15-.51-.47c-.09,0-.19-.02-.28-.02-.1,0-.2,0-.31.01v.29c-.27.06-.55.12-.87.19-.1.79-.79.34-1.26.56.31.25.65-.04.99.18-.61.05-1.14.1-1.67.14-.2.01-.37,0-.45-.27-.04-.11-.33-.2-.51-.21-.71-.05-1.42-.14-2.14.04-.32.08-.7-.04-1.07-.07-.03-.12-.05-.22-.09-.38-.07.04-.13.08-.21.13-.09-.22-.31-.25-.55-.24-.6.04-1.19.08-1.79.12-.12,0-.24.02-.36.01-.55-.02-1.09-.04-1.65.05.15.02.3.04.5.06-.05.08-.08.16-.11.16-.45,0-.91,0-1.38-.06.11-.03.23-.07.34-.1-1.01-.24-2.02-.24-3.04-.02.11.04.22.07.34.11,0,.03,0,.07-.01.1h-2.03c-.03-.09-.06-.19-.1-.33h-1.51c-.05.54-.52.41-.84.53.07.05.14.1.21.15,0,.04,0,.08,0,.11-.25.02-.49.04-.74.04-.68,0-1.36,0-2.04.02-.23,0-.47.08-.7.13h.02Zm-3.19-1.43s0,.03,0,.04h1.61s0-.03,0-.04h-1.61Zm-14.59-1.07s0,.02,0,.03h.75s0-.02,0-.03h-.75Zm19.65,2.05s0-.01,0-.02h-.26v.02h.26Z"/>
      <path class="cls-1" d="m206.16,84.55c.09.09.18.19.34.34.06-.24.1-.38.14-.51.44-.07.85-.13,1.33-.21-.27-.1-.47-.18-.71-.27.93-.43,1.95-.19,3.05-.44-.23-.05-.32-.08-.42-.09-.1-.01-.2-.01-.3-.09.83-.05,1.67-.1,2.5-.14.52-.02,1.04-.02,1.56-.02.45,0,.45,0,.65.47.05-.12.09-.19.12-.27.02,0,.06.02.07.04.05.08.07.22.13.24.27.06.54.11.81.1.25,0,.5-.08.8-.14.02-.09.05-.21.1-.4h2.04c.07-.18.11-.3.16-.43.52,0,1.02,0,1.52,0,.23,0,.45-.06.58.27.05.12.39.12.6.17.33.07.33.07.49.4.16-.03.32-.07.53-.11-.12-.05-.19-.08-.26-.11,0-.03,0-.06-.01-.08.39-.05.77-.1,1.19-.15.04-.27.09-.55.16-.98.08.22.11.31.18.5.07-.44.33-.58.74-.51-.02-.05-.03-.09-.05-.14-.08-.03-.16-.07-.36-.15h1.39s0,.05,0,.08c-.18.02-.36.04-.54.05q.69.15.89.56c.04-.07.07-.13.13-.22.04.15.09.27.12.39.03.13.05.27.07.4.47.2.91.13,1.39-.04.03-.09.06-.22.1-.37.12,0,.23,0,.35,0,.92-.01,1.83-.03,2.75-.04.78,0,1.56,0,2.34,0,.2,0,.4.02.6.02.28-.01.38.15.39.42h1.15c.02-.08.05-.18.08-.33.5-.02,1.02-.04,1.53-.06.26-.01.33.15.36.38h.62c.02-.1.05-.2.08-.32.65-.18,1.3-.06,1.95-.04.06,0,.15.03.16.06.13.62.61.18.92.37.02-.15.04-.24.07-.39.56-.06,1.14-.12,1.72-.18,0-.03,0-.07.01-.1-.15-.04-.31-.08-.44-.12.21-.02.46-.04.72-.06.04.11.08.21.14.37h2.14c.04-.14.07-.27.13-.47h4.1c.02.07.05.22.09.38.16.19.66.01.56.53.82,0,1.59,0,2.36,0,.32,0,.64-.03.96,0,1.25.07,2.51-.11,3.77.1.35.06.74-.08,1.2-.14-.18-.07-.26-.1-.35-.14.42-.21,1.09-.23,2.39-.05-.28.03-.5.06-.72.09.66.21,1.33.22,2.02.16.03-.1.06-.21.11-.35.7-.06,1.4-.13,2.1-.19,0-.03,0-.06,0-.1-.09-.02-.17-.05-.26-.06-.09-.01-.19,0-.29-.09.74-.03,1.47-.07,2.21-.08.21,0,.5-.07.54.29,0,.04.13.09.2.09.35,0,.71,0,1.06,0,0-.05.01-.09.02-.14-.08-.03-.15-.07-.27-.11.54-.25,1.07-.17,1.61-.14.41.03.83,0,1.24-.06.12-.02.21-.23.38-.42h.95c.04.09.09.21.16.36.55.07,1.13.15,1.72.23-.22.04-.42.08-.62.12,0,.03,0,.06,0,.09.63.04,1.26.07,1.85.11.2-.14.12-.54.47-.35q.16.68-.07,1.36h-7.75c-.02.23-.03.39-.04.54-.06.03-.12.07-.17.08-.78.02-1.56.05-2.34.06-4.2.03-8.39.07-12.59.09-3.66.02-7.31.02-10.97.03-.12,0-.24,0-.35.09h12.29s0,.1,0,.14l-35.41.23s0,.08,0,.12h5.53s0,.06,0,.09c-2.96.06-5.91.16-8.87.16-2.96,0-5.92.27-8.89-.08-.05-.4-.03-.41.36-.35.5.08.5.08.73-.33Zm62.99-2.04s0-.02,0-.03h-.34s0,.02,0,.03h.34Zm-33.7.43s-.01.04-.02.06c.1,0,.2,0,.31-.01,0-.01,0-.03,0-.04h-.29Z"/>
      <path class="cls-1" d="m400.5,102.63c.16-2.02,0-4.06.15-6.09.6,0,1.13-.01,1.66,0,.19,0,.25.16.22.35-.04.31-.07.63-.11.97.17.06.3.11.46.16.02.21.03.4.05.65.24.04.49.12.35.48.44.04.79.07,1.19.11-.04.34.16.46.49.43.07.38.14.74.2,1.1.03,0,.05,0,.08,0,.04-.15.08-.29.12-.44.03,0,.05,0,.08,0v1.25s-.06,0-.09,0c-.04-.08-.07-.16-.16-.36-.08.36-.14.61-.2.91-.13.05-.29.11-.5.18v1.87s-.05.01-.08.02c-.04-.1-.08-.2-.12-.3-.03,0-.05,0-.08,0-.09.68-.18,1.35-.27,2.08-.08,0-.17.01-.26.02-.08,0-.15,0-.27.02v.93c.21.03.4.05.62.08.1.43-.08.79-.27,1.19-.06-.19-.12-.38-.18-.56-.02,0-.05,0-.07,0-.04.31-.09.63-.14.98.25.02.44.04.57.05.17.25.31.46.5.74v.54s-.05.02-.08.02c-.03-.09-.06-.18-.12-.34-.07.18-.12.31-.17.45-.06.02-.12.04-.17.05-1.06.03-2.11.07-3.17.09-.52.01-.66-.1-.62-.62.18-2.12.08-4.25.11-6.37.02-2.11,0-4.22.05-6.33.16,1.2.26,2.39.14,3.61-.07.68.04,1.38.08,2.07Zm3.81-.27c-.23.77-.23.78.06,1.18-.02-.43-.04-.75-.06-1.18Z"/>
      <path class="cls-1" d="m279.63,112.95c-.04-.18-.06-.31-.1-.48,1.13-.29,2.22,0,3.32.04-.18.23-.43.21-.67.23-.25.03-.5.04-.75.12,1.63.1,3.25.2,4.88.31,0,.01,0,.02,0,.03-.22.02-.43.05-.65.07v.12c.14.02.29.05.43.05.9.01,1.8.02,2.69.04.4.01.4.03.6.45.06-.07.11-.11.14-.17.03-.05.04-.12.1-.28.18.29.2.62.56.6.03,0,.08.19.12.3.12.26.17.58.56.56.02.22.03.4.04.58.14.1.32.17.39.3.06.12-.02.3-.04.5.14.03.29.06.42.09-.2.04-.41.08-.66.13-.05-.39-.32-.46-.67-.43-.36.03-.71.04-1.12.07-.01.23-.02.44-.04.65-.03.31-.12.37-.43.31-.08-.02-.15-.05-.23-.07-.08-.02-.15-.02-.24-.03-.03-.12-.07-.23-.1-.35-.83-.05-1.65-.09-2.47-.14,0-.04,0-.08-.01-.13l.64-.08s0-.04,0-.05c-.16,0-.33,0-.49-.03-.11-.02-.2-.1-.31-.13-.11-.03.06-.5-.26-.15-.09-.11-.16-.28-.28-.33-.16-.06-.35-.05-.53-.04-.16,0-.31.06-.5.1-.04.12-.09.26-.14.39-.87.09-1.9.02-2.34-.17.26-.04.49-.08.83-.13-1.5-.09-2.89-.18-4.28-.26l-.02-.09c.15-.08.31-.16.56-.3-1.48-.28-2.88-.14-4.28-.36.09-.05.18-.1.4-.22-.4,0-.67,0-.94,0-.75-.03-1.51-.08-2.26-.11-.22,0-.46-.05-.65.02-.44.16-.85.1-1.31-.08-.02-.16-.15-.34.19-.41.12-.02.2-.22.38-.45.96,0,2.06-.01,3.15-.03.24,0,.47-.04.71-.07.07,0,.2-.05.2-.08.05-.49.42-.32.69-.33,1.34-.02,2.68-.02,4.01-.03.23,0,.47-.04.74-.06Z"/>
      <path class="cls-1" d="m160.79,83.47c-.66.05-1.31.09-2.02.14-.03-.11-.05-.21-.08-.32h-.69c-.02.12-.03.21-.05.31-1.34.26-2.68.16-4.01.16-2.18.01-4.35-.02-6.53-.03-.68,0-1.36-.04-2.04-.04-.46,0-.91.03-1.4.04-.02.21-.04.37-.05.54-.46.01-.15-.34-.31-.51-.27-.07-.58-.14-.9-.22,0-.03,0-.06,0-.09.08-.02.15-.05.25-.07-.32-.21-.87-.09-.89-.66-.19-.02-.35-.03-.42-.04-.23-.22-.4-.39-.58-.57-.13-.19-.09-.51-.46-.56-.03-.27-.07-.55-.1-.86.14,0,.26-.02.44-.03-.08.24-.15.43-.21.62.2-.28.43-.25.73-.22.36.04.74-.04,1.1-.07.08-.46.15-.86.22-1.26.15.36.45.4.74.4.05.14.09.24.14.38.37,0,.73-.03,1.08,0,.22.02.56-.08.6.32,0,.04.17.07.26.09.19.04.39.07.61.11.03.19.06.38.1.6.19.02.41,0,.57.08.12.06.18.26.31.46.15-.63.77-.4,1.12-.7-.14-.07-.27-.15-.44-.24.76-.3,2.26-.4,3.19-.21.03.19.06.4.09.6l.1.02c.06-.16.12-.32.19-.52.16.24.25.54.44.62.2.08.49-.05.75-.09.02-.21.04-.41.06-.67.85-.1,1.65.12,2.47.16,0,.04.01.08.02.12-.27.07-.54.14-.8.21,0,.02,0,.04,0,.06.68.09,1.36.18,2.01.26.1.13.18.31.28.33.44.07.88.07,1.34.02.61-.07,1.25.08,1.88.15.05,0,.12.09.15.16.12.3.35.16.54.18.06-.15.11-.27.16-.38h1.06v.82c-.85.24-1.73.13-2.6.28h1.59v.1Z"/>
      <path class="cls-1" d="m21.92,86.97v3.58c-.17.04-.26.07-.42.11v6.89c-.47-.03-.85-.05-1.22-.07-.08-.13-.12-.3-.21-.33-.22-.08-.13.18-.21.24-.11.08-.28.09-.52.15v-2.06c-.19-.04-.31-.07-.45-.1-.03-.16-.06-.33-.1-.54h-1.52c-.07-.29-.06-.64-.22-.76-.42-.31-.39-.75-.42-1.15-.03-.36.06-.73.09-1.1.04,0,.08,0,.13,0,.03.09.06.17.09.3.09-.18.22-.34.23-.51.02-.31.31-.2.49-.35v-2.03c.24-.02.39-.03.6-.05.02-.22.03-.45.05-.7-.23-.04-.42-.08-.65-.12v-1.29c1.42-.22,2.82-.12,4.25-.11Zm-3.63,7.57s0,.01,0,.02h.22s0-.01,0-.02h-.23Z"/>
      <path class="cls-1" d="m64.57,113.28h.93s0-.08,0-.11c-1.14-.06-2.27-.12-3.44-.18-.03-.19-.05-.36-.08-.57-.07-.02-.16-.07-.25-.08-.19,0-.26-.13-.23-.27.02-.09.13-.22.21-.23.27-.01.32-.18.29-.44.99-.04,1.92-.08,2.86-.1,1.04-.03,2.08-.04,3.11-.05.3,0,.6.05.9.04.22-.01.55.17.6-.27,0-.05.25-.1.38-.09.67.02,1.35.06,2.03.15h-1.11s-.01.07-.02.11c.09.04.17.1.26.1.62.03,1.24.04,1.86.06.35,0,.7,0,.87.42.03.08.24.11.37.11.18,0,.35-.05.56-.08.02-.12.05-.24.08-.42h1.17c.06.26.12.5.17.76.03-.01.06-.01.07-.03.01-.01,0-.04.01-.06.02-.03.04-.07.07-.13.3.49.25,1.01.3,1.56-.36.07-.68.14-1.05.21.12.06.2.11.4.21-.43.09-.77.08-1.11.08-.34,0-.68-.03-1.02-.02-.35,0-.71.05-1.09.07-.05.14-.09.28-.14.41-.99.04-1.96.07-2.93.11v.09c.08.04.16.08.27.13-.37.19-2.39.25-3.48.12-.04-.43-.08-.88-.12-1.33-.6-.06-1.15-.11-1.7-.17,0-.04,0-.07,0-.11Zm2.79,1.32c.34.29.66.09.98,0h-.98Zm7.16-.87c-.13-.06-.13-.07-.14-.07-.28,0-.57,0-.85,0,0,.02,0,.04,0,.07h.99Z"/>
      <path class="cls-1" d="m354.22,84.58h2.18s0-.06,0-.09c-.34,0-.67,0-1.01,0-.36,0-.72,0-1.08-.03-.45-.03-.45-.04-.54-.61-.08.24-.05.51-.41.43-.04-.18-.09-.38-.16-.64-.29.04-.58.07-.88.11-.01.21-.02.38-.03.57-.33.17-.67.15-1,.15-.25,0-.36-.13-.36-.38,0-.22,0-.43-.06-.65-.02.25-.04.51-.06.76-.04,0-.08,0-.12,0-.08-.63-.15-1.25-.24-1.92,1.18-.22,2.3-.07,3.45-.12.09-.14.08-.4.38-.38.25.02.5-.09.76-.11.45-.04.91-.05,1.41-.08-.05-.35-.01-.62.43-.62.11,0,.22-.2.4-.37.14.01.36.03.59.05,0,.02,0,.05,0,.07-.1.03-.21.05-.32.08.02.03.04.07.06.07.79.1,1.58.19,2.36.29.03,0,.06.04.11.08-.13.08-.25.15-.36.22.04.07.05.12.08.13.2.07.41.12.61.19.06.02.17.08.16.12-.02.44.28.41.57.39.06,0,.11.02.18.09-.16.02-.33.05-.49.07,0,.02,0,.05,0,.07.12.01.24.03.36.03.95.05,1.9.2,2.87.09.21-.02.43.06.64.09.06,0,.15.04.16.06.03.54.53.35.83.5-.06.33-.12.64-.17.95-.05,0-.1,0-.15,0-.03-.19-.05-.38-.08-.57-.03,0-.06-.01-.09-.02-.05.21-.11.41-.17.66-2.61.21-5.22.06-7.83.28h2.34c-.46.26-4.71.28-5.32-.02Z"/>
      <path class="cls-1" d="m404.13,89.53c.45.07.89.14,1.4.23-.17.31-.59.39-.43.78-.19.05-.34.08-.5.12-.01.19-.02.37-.04.58-.33,0-.52.15-.49.51-.21.02-.39.04-.58.07-.03.03-.07.08-.1.12-.07.1-.12.24-.22.29-.27.15-.27.14-.39.45-.7.15-1.4.13-2.18.05.04-.31.05-.58.11-.85.12-.53.13-.52-.4-.71v-4.01c1.01-.27,2.01-.04,2.98-.16.19.4.12.75.1,1.1-.02.33.03.67.05,1q.55.05.7.43Zm-3.54-1.52s-.06,0-.09-.01c-.02.1-.03.19-.05.29.03,0,.07.01.1.02.01-.1.02-.2.03-.29Z"/>
      <path class="cls-1" d="m194.41,83.65c.25-.07.44-.12.64-.18-.01-.02-.02-.04-.03-.05-.02-.01-.04-.01-.05-.02-.02-.03-.04-.06-.08-.11,1.02-.3,2.06-.13,3.08-.19.05-.15.09-.28.13-.42.34.03.65.05,1,.08.1.15.1.43.4.39.07,0,.2.04.21.08.08.47.47.35.75.36.91.02,1.83,0,2.75,0,.24,0,.48,0,.77,0v.71c-.19.03-.36.06-.58.09-.06.11-.13.25-.2.39-.32.03-.64.06-.96.1-.18.02-.41-.03-.43.28,0,.04-.23.1-.36.11-.68.01-1.36.01-2.04,0-1.65,0-3.31,0-4.96-.02-.37,0-.74-.04-1.14-.06-.02-.28-.03-.49-.04-.7.03,0,.06-.02.09-.03.04.07.09.14.13.22.04.09.07.18.12.31h5.53s0-.06,0-.08c-.34,0-.67,0-1.01,0-1.32.01-2.63.03-3.95.03-.23,0-.56.11-.6-.3-.03-.27.08-.32.61-.36.04,0,.08-.02.16-.04.02-.19.04-.4.06-.63Z"/>
      <path class="cls-1" d="m231.67,111.5c-.14.08-.2.12-.34.2.32.04.57.09.81.09,1.44.01,2.87,0,4.31.01.26,0,.52.01.78.01.2,0,.37.05.37.28,0,.22-.18.21-.34.23-.25.03-.51.07-.77.11-.03.36-.06.69-.09,1.09-1.82.01-3.62,0-5.41-.11,0-.04,0-.08,0-.12.32-.03.64-.06.95-.09,0-.02,0-.05,0-.07-1.69-.04-3.38-.08-5.15-.12.02-.33.04-.65.06-1.04.1.12.15.18.24.29.06-.15.11-.26.19-.46h1.59c.03-.17.05-.26.08-.39.88.02,1.77-.11,2.72.08Z"/>
      <path class="cls-1" d="m245.08,114.73c.07-.03.14-.05.3-.11-.54-.06-1-.11-1.51-.17-.02-.08-.04-.18-.08-.33-.39-.1-.8-.2-1.29-.32.23-.03.4-.05.57-.07,0-.02,0-.04,0-.06-.09-.02-.19-.03-.28-.05-.19-.03-.41-.02-.46-.29-.03-.22.06-.32.42-.45.03-.56.03-.6.61-.62.96-.05,1.91-.06,2.87-.05,1.06,0,2.11.06,3.17.09.14,0,.27.03.44.05.01.21.02.41.03.63-.27.1-.67.06-.5.53-.26.02-.44.03-.63.04-.14.14.01.53-.38.49-.05,0-.15.13-.15.2-.01.2-.11.28-.3.29-.05,0-.15.03-.16.06-.1.54-.54.35-.85.37-.61.04-1.22,0-1.82-.1,0-.05,0-.09,0-.14Z"/>
      <path class="cls-1" d="m182.07,84.65c.43-.05.87-.09,1.28-.14-.6-.03-1.21-.06-1.88-.09-.01-.26-.03-.48-.04-.73.18-.06.33-.1.47-.14.03-.13.06-.26.09-.41h.5c.04-.06.07-.11.1-.15.09-.11.16-.25.27-.34.25-.21.43-.52.77-.62.03,0,.02-.14.04-.28.48.04.94.07,1.4.11,0,.01,0,.02,0,.03-.15.02-.29.04-.49.07.07.08.1.15.14.15.56.05,1.11.08,1.67.13.17.01.3.03.41.25.07.14.4.15.68.24.02.06.06.18.11.34.37.04.77.08,1.2.13,0,.1.05.3.02.31-.37.14-.37.45-.37.77-.93.29-1.88.12-2.8.26.55.03,1.09.06,1.64.08-1.74.22-3.47.21-5.21.15,0-.04,0-.08,0-.12Z"/>
      <path class="cls-1" d="m20.87,102.79h-.47c-.09.51-.18,1-.27,1.48,0,.05-.05.09-.11.19-.06-.16-.11-.28-.16-.41h-.98c-.03.11-.07.22-.11.34h-2.07q-.23-.83.36-1.01c.02-.18.04-.37.07-.58.17-.03.31-.06.46-.09.02-.13.03-.25.05-.39.2-.03.39-.05.63-.08.1-.17.09-.51.45-.45.17-.47.59-.47.98-.52.48-.69,1.14-.14,1.76-.37-.03.48-.06.85-.09,1.31-.09-.18-.13-.26-.21-.41-.11.36-.19.65-.3,1Z"/>
      <path class="cls-1" d="m19.73,105.37c-.12-.06-.25-.12-.39-.19.3-.31.91-.12,1-.7.28,0,.59-.15.72.29.03.1.25.14.39.21.1,1.06.33,2.12-.03,3.24h-2.94c-.15-.43-.18-1.88-.05-2.54.42-.06.84-.12,1.27-.18.01-.04.02-.08.03-.12Z"/>
      <path class="cls-1" d="m257.96,112.58c-.3.07-.6.15-.9.22,0,.03,0,.06,0,.1.92.07,1.85.15,2.82.23-.03.2-.06.35-.08.5-.08-.05-.14-.08-.24-.14-.07.33-.14.63-.22.96-1.19.16-2.37.12-3.5,0-.22-.21-.41-.4-.68-.65v-.68c.38-.05.54-.28.43-.66.83-.26,1.59.03,2.37.12Z"/>
      <path class="cls-1" d="m175.67,82.7c.06.27.05.55.39.56.02,0,.03.17.05.26-.47.07-.33.49-.43.82-1.09.05-2.16,0-3.23-.16,0-.04,0-.09-.01-.13.27-.05.55-.09.82-.14,0-.02,0-.05,0-.07-.6-.07-1.19-.15-1.78-.22q0-.35.35-.46c.05-.25.1-.52.16-.8.76-.21,1.51.02,2.26,0-.52.03-1.05.06-1.57.09,0,.03,0,.06,0,.08.99.05,1.97.11,3.01.16Z"/>
      <path class="cls-1" d="m88.15,111.76c-.37.06-.73.11-1.09.17-.41.62-.02,1.36-.29,2.08-.22-.21-.35-.44-.64-.41-.04,0-.12-.06-.13-.11-.09-.41-.64-.59-.48-1.13-.25-.02-.44-.04-.64-.05-.26-.02-.57.09-.71-.27-.06.04-.11.08-.13.09-.17-.19-.33-.37-.51-.57.11-.02.23-.06.37-.07,1.11-.06,2.23-.12,3.34-.15.25,0,.51.07.76.12.09.02.17.07.26.11-.04.07-.08.14-.12.2Z"/>
      <path class="cls-1" d="m59.97,113.03h-1.73c-.06-.21-.11-.37-.17-.54-.36-.07-.71-.12-1.05-.2-.09-.02-.16-.12-.25-.19.08-.06.17-.1.24-.17.12-.13.22-.28.39-.5.31,0,.71,0,1.1,0,.35,0,.77-.14.93.37.64.22.46.74.53,1.23Z"/>
      <path class="cls-1" d="m333.87,85.16c-5.71.13-11.43.09-17.14-.04,5.71-.02,11.43-.13,17.14.04Z"/>
      <path class="cls-1" d="m368.51,83.05c.31.03.62.05.93.08.27.03.27.04.3.46-.79.24-1.61.14-2.42.11-.09,0-.24-.06-.26-.12-.08-.31-.18.1-.32,0-.04-.28-.08-.55-.13-.86.99-.22,1.89.11,2.79.13-.3.02-.59.04-.89.06,0,.05,0,.09,0,.14Z"/>
      <path class="cls-1" d="m47.64,112.98c-.01-.18-.02-.37-.03-.54.12-.23.53-.11.48-.46,0-.02.09-.08.14-.09.51-.04,1.01-.06,1.59-.1-.01.25-.02.42-.03.59-.01.17-.03.35-.06.59h-2.09Z"/>
      <path class="cls-1" d="m196,110c-.48.14-9.53.15-9.99.04.46-.17,8.66-.22,9.99-.04Z"/>
      <path class="cls-1" d="m178.86,109.99c.08-.03.16-.1.25-.1,2.02.04,4.04-.06,6.05.09-.44.16-5.61.21-6.3,0Z"/>
      <path class="cls-1" d="m376.21,83.67c.03-.37.05-.61.08-.94.44-.02.87-.05,1.29-.04.12,0,.31.14.33.24.04.21-.15.23-.32.22-.1,0-.19,0-.32,0-.04.13-.08.26-.12.42-.28.03-.56.05-.94.09Z"/>
      <path class="cls-1" d="m399.95,114.88c-.08-.29-.17-.56-.58-.46-.02-.27-.04-.5-.06-.77.25-.04.47-.12.46-.43,0-.05.17-.17.25-.16.08.01.18.13.22.22.04.1.03.24.01.35-.05.4-.11.8-.17,1.21-.04.01-.09.03-.13.04Z"/>
      <path class="cls-1" d="m299.52,86.02c.48-.18,2.46-.19,3.39-.02-.74.31-2.98.32-3.39.02Z"/>
      <path class="cls-1" d="m371.49,83.52v-.86c.18.05.41.06.43.13.11.46.51.34.81.43.22.07.46.08.74.13-.56.31-1.15.36-1.97.17Z"/>
      <path class="cls-1" d="m210.12,110.05h-5.41s0-.06,0-.09h5.41s0,.06,0,.09Z"/>
      <path class="cls-1" d="m22.33,83.23c0,.67.22,1.33-.04,2.1-.13-.08-.27-.13-.3-.21-.06-.16-.09-.35-.08-.52.01-.38.05-.75.09-1.12.01-.1.09-.18.14-.28l.18.03Z"/>
      <path class="cls-1" d="m55.05,111.82c0,.38.02.67,0,.97-.01.21-.16.26-.37.16-.03-.16-.06-.33-.09-.54-.11-.03-.26-.04-.37-.1-.09-.05-.19-.16-.19-.24,0-.09.12-.22.2-.23.25-.03.51-.01.82-.01Z"/>
      <path class="cls-1" d="m129.6,85.3c.64-.21,2.74-.3,3.68-.17-.74.04-1.49.06-2.24.12-.25.02-.49.11-.73.19-.25.08-.49.19-.71-.14Z"/>
      <path class="cls-1" d="m285.51,83.57c-.38.05-.72.09-1.09.13v-.55h.71c.07-.14.13-.25.19-.37.03,0,.07.02.1.02.02.22.04.44.08.76Z"/>
      <path class="cls-1" d="m94.21,108.99h4.23s0,.05,0,.08h-4.23s0-.05,0-.08Z"/>
      <path class="cls-1" d="m398.46,100.31v4.45s-.06,0-.09,0v-4.5l.09.05Z"/>
      <path class="cls-1" d="m247.42,112.04h-4.22s0-.05,0-.08c.45,0,.91-.02,1.36-.02.48,0,.96,0,1.43,0,.48,0,.95,0,1.43,0,0,.04,0,.07,0,.11Z"/>
      <path class="cls-1" d="m211.73,113.88h-2.08v-.08h2.08v.08Z"/>
      <path class="cls-1" d="m335.86,113.76h2.63c-.46.23-1.58.23-2.63,0Z"/>
      <path class="cls-1" d="m126.04,109.96h2.42c-.8.26-1.6.1-2.42,0Z"/>
      <path class="cls-1" d="m215.12,114.6c.3-.05.6-.11.91-.12.08,0,.17.16.26.25-.09.08-.18.21-.28.22-.32.03-.65.04-.9-.19,0-.05.01-.1.02-.15Z"/>
      <path class="cls-1" d="m256.06,82.87h-3.8s0-.03,0-.05h3.81s0,.03,0,.05Z"/>
      <path class="cls-1" d="m214.15,82.32c-.02-.19-.05-.35-.08-.59.31.02.56.02.8.06.06.01.13.14.14.22,0,.05-.08.15-.13.16-.22.06-.45.09-.74.15Z"/>
      <path class="cls-1" d="m20.37,84.45c-.04-.3-.16-.52.07-.67.09-.06.33-.04.37.02.08.13.14.37.07.47-.08.11-.31.11-.51.18Z"/>
      <path class="cls-1" d="m144.02,113.02c-.51.06-.54.04-.55-.29-.02-.31.09-.47.3-.47.24,0,.3.19.25.75Z"/>
      <path class="cls-1" d="m155.93,113.77h2.45s0,.05,0,.07c-.27,0-.54,0-.81,0-.28,0-.56.02-.84.03-.27.01-.56.11-.8-.11Z"/>
      <path class="cls-1" d="m273.68,114.86c-.49.04-.98.08-1.46-.14h1.46s0,.09,0,.14Z"/>
      <path class="cls-1" d="m63.89,111.03h2.8s0,.02,0,.02h-2.8s0-.02,0-.02Z"/>
      <path class="cls-1" d="m59.59,109.47h2.2c-.73.28-1.47-.03-2.2,0Z"/>
      <path class="cls-1" d="m345.63,114.26h2.16c-.35.21-.71.11-1.07.09-.36-.01-.71-.04-1.07-.05,0-.01-.02-.03-.02-.04Z"/>
      <path class="cls-1" d="m364.98,85.99c.38-.13.73-.09,1.13-.01-.52.3-.78.31-1.13.01Z"/>
      <path class="cls-1" d="m337.45,81.01q.47.05.41.66c-.5.13-.52.09-.41-.66Z"/>
      <path class="cls-1" d="m334.38,111.51h2.65v.04h-2.65s0-.03,0-.04Z"/>
      <path class="cls-1" d="m73.9,109h1.38c-.48.22-.87.23-1.38,0Z"/>
      <path class="cls-1" d="m372.31,114.88h-1.63c.5-.29,1-.22,1.63,0Z"/>
      <path class="cls-1" d="m104.18,110.43c-.32.3-.63.1-.96.03.35-.23.49-.23.96-.03Z"/>
      <path class="cls-1" d="m370.53,85.95c.29-.02.58-.03.91-.05-.19.39-.31.41-.9.19,0-.04,0-.09,0-.13Z"/>
      <path class="cls-1" d="m215.14,86.69h-1.91s0-.03,0-.04h1.92s0,.03-.01.04Z"/>
      <path class="cls-1" d="m181.81,111.51h1.85s0,0,0,.01h-1.84s0,0,0-.01Z"/>
      <path class="cls-1" d="m114.18,109.06h-1.85v-.06h1.87s-.02.04-.02.06Z"/>
      <path class="cls-1" d="m274.79,111.18h1.16c-.19.19-.4.06-.59.07-.19.02-.38,0-.57,0v-.07Z"/>
      <path class="cls-1" d="m180.58,114.61c-.05.08-.09.22-.15.23-.16.04-.34.02-.51.01-.02,0-.05-.19-.04-.19.14-.04.28-.09.42-.1.09,0,.19.04.29.06,0,0-.01-.01-.01-.01Z"/>
      <path class="cls-1" d="m194.05,113.93h-1.17q.64-.19,1.17,0Z"/>
      <path class="cls-1" d="m273.48,111.16h.76c-.26.2-.28.21-.76,0Z"/>
      <path class="cls-1" d="m21.84,105.93v1.53h-.08v-1.53h.08Z"/>
      <path class="cls-1" d="m68.78,111.08h-1.38s0-.04,0-.06h1.38s0,.04,0,.06Z"/>
      <path class="cls-1" d="m270.29,84.04h.83c-.46.22-.46.22-.83,0Z"/>
      <path class="cls-1" d="m205.9,114.88h-.87c.34-.27.52-.28.87,0Z"/>
      <path class="cls-1" d="m402.02,113.79c-.16.1-.27.22-.32.19-.1-.04-.19-.15-.22-.26-.01-.04.15-.2.2-.19.11.03.19.14.34.25Z"/>
      <path class="cls-1" d="m87.39,109.01h1.03s0,.05,0,.07c-.36-.02-.72-.04-1.08-.05.02,0,.04,0,.06-.01Z"/>
      <path class="cls-1" d="m25.38,108.64c-.31-.03-.63-.07-1.01-.11.38,0,.7-.04,1.01.11Z"/>
      <path class="cls-1" d="m147.99,112.87c.01-.12.03-.25.05-.46.23.23.24.36.11.49-.05,0-.11-.02-.16-.03Z"/>
      <path class="cls-1" d="m388.16,114.74h1s0,.03,0,.05h-1s0-.03,0-.05Z"/>
      <path class="cls-1" d="m398.38,109.42c-.02-.36-.04-.72-.06-1.08h.12v1.07s-.03,0-.05,0Z"/>
      <path class="cls-1" d="m355.75,81.16h.55q-.17.31-.55,0Z"/>
      <path class="cls-1" d="m28.18,109.48h.61c-.22.2-.42.11-.61,0Z"/>
      <path class="cls-1" d="m270.04,114.72h.58q-.21.18-.58,0Z"/>
      <path class="cls-1" d="m156.61,84.17h-.85s0-.02,0-.03h.86s0,.02-.01.03Z"/>
      <path class="cls-1" d="m185.65,113.92h-.52s0-.02,0-.03c.17-.03.34-.06.51-.09,0,.03.01.07.02.13Z"/>
      <path class="cls-1" d="m216.1,109.98h.76c-.25.01-.5.01-.76.01h0Z"/>
      <path class="cls-1" d="m143.19,112.94v-.37s.05,0,.07,0c.02.13.03.26.05.39-.04,0-.08,0-.12,0Z"/>
      <path class="cls-1" d="m198.95,110h-.75s0-.02,0-.02h.73s.01.02.02.02Z"/>
      <path class="cls-1" d="m113.17,114.73h.53s-.01.1-.03.1c-.15.06-.31.09-.5-.1Z"/>
      <path class="cls-1" d="m232.19,111.51h.58s0,0,0,0h-.58s0,0,0,0Z"/>
      <path class="cls-1" d="m41.53,82.86h-.78s0-.04,0-.07h.78s0,.04,0,.07Z"/>
      <path class="cls-1" d="m206.84,85.6h-.6s0,0,0-.01h.59s0,0,0,.01Z"/>
      <path class="cls-1" d="m277.7,111.19h.43s0,.06,0,.09h-.43v-.09Z"/>
      <path class="cls-1" d="m20.22,84.65c-.1.04-.16.09-.22.09-.03,0-.07-.08-.1-.12.06-.04.11-.1.17-.11.03,0,.08.07.16.14Z"/>
      <path class="cls-1" d="m350.3,82.39v.46s-.03,0-.05,0c-.02-.15-.04-.31-.06-.46.04,0,.07,0,.11,0Z"/>
      <path class="cls-1" d="m129.42,109.97h.58s0,0,0,.01h-.58s0,0,0-.01Z"/>
      <path class="cls-1" d="m351.64,84.72h-.39s0-.06,0-.09c.13,0,.26-.02.39-.03,0,.04,0,.08.01.12Z"/>
      <path class="cls-1" d="m334.6,85.11h.62s0,.01,0,.02h-.62s0-.01,0-.02Z"/>
      <path class="cls-1" d="m158.15,81.84h.69s0,.04,0,.05h-.69v-.05Z"/>
      <path class="cls-1" d="m16.42,103.62v.42h-.06c-.03-.12-.07-.26-.1-.4.06,0,.11-.02.17-.03Z"/>
      <path class="cls-1" d="m402.7,97.38c-.02-.22-.03-.45-.05-.67.26.22.03.45.05.67Z"/>
      <path class="cls-1" d="m356.03,114.72h.49c-.07.07-.1.13-.13.13-.13,0-.26-.02-.38-.03,0-.04.01-.07.02-.11Z"/>
      <path class="cls-1" d="m78.2,83.33h-.56v-.03h.56s0,.02,0,.03Z"/>
      <path class="cls-1" d="m76.76,112.58v.77s-.05,0-.07,0v-.77s.05,0,.07,0Z"/>
      <path class="cls-1" d="m100.15,83.34c-.17,0-.33.02-.5.03,0-.02,0-.04,0-.06h.5v.03Z"/>
      <path class="cls-1" d="m257.12,111.19h-.39s0-.01,0-.02h.39s0,.01,0,.02Z"/>
      <path class="cls-1" d="m400.34,92.65c0-.1,0-.2,0-.29,0,0,.1-.01.1,0,.02.1.03.19.05.29-.05,0-.1,0-.15,0Z"/>
      <path class="cls-1" d="m117,111.06h-.39s0-.02,0-.03h.41s0,.02-.01.03Z"/>
      <path class="cls-1" d="m57,83.3c.11,0,.22,0,.45.02-.23.01-.34.02-.45.02,0-.01,0-.03,0-.04Z"/>
      <path class="cls-1" d="m341.09,86.67h-.28s0,0,0,0h.28s0,0,0,0Z"/>
      <path class="cls-1" d="m359.8,114.25h.29s0,.07,0,.1h-.29s0-.07,0-.1Z"/>
      <path class="cls-1" d="m355.04,86.68h-.29s0,0,0-.01h.28s0,0,.01.01Z"/>
      <path class="cls-1" d="m90.21,114.72c-.05.06-.09.1-.12.14-.04-.04-.08-.07-.11-.11,0-.01.04-.08.06-.08.05,0,.09.03.17.05Z"/>
      <path class="cls-1" d="m277.22,111.28s-.05-.04-.08-.06c.04-.02.08-.04.13-.05.01,0,.03.05.05.07-.03.01-.07.02-.1.04Z"/>
      <path class="cls-1" d="m302.83,81.07c.08.07.16.11.15.14,0,.06-.06.12-.09.18-.04-.03-.12-.06-.12-.09,0-.06.03-.12.06-.22Z"/>
      <path class="cls-1" d="m395.06,115.46s-.05.05-.07.07c-.01-.03-.03-.06-.04-.09,0,0,.03-.04.03-.04.03.02.05.04.08.06Z"/>
      <path class="cls-1" d="m153.06,113.73c-.04.06-.08.14-.09.13-.06-.02-.11-.06-.16-.1.04-.04.07-.1.11-.1.04,0,.08.04.14.07Z"/>
    </g>
  </g>
</svg>